<svg xmlns="http://www.w3.org/2000/svg" width="61.734" height="62.487" viewBox="0 0 61.734 62.487">
  <g id="Group_14292" data-name="Group 14292" transform="translate(-540.955 -1917.842)">
    <g id="Group_14291" data-name="Group 14291" transform="translate(542.354 1918.319)">
      <path id="Path_27425_3_" d="M218.684,427.216l-.588-.509v-.47l.274-.235v-.157L217,424.787h2.155l.431-.353v-.274l-.353-.2H218.1l-.47-.392v-.313l1.254-.431-1.8-.353.744-1.293H223.7l.118-.431h.783l.431.431,1.175.2,1.489,2.39h1.684l.823.548h1.371l.666.862h.744l.353-.431-.353-2.546.353-1.763-.548-3.173,2.938.783.353,2.194,2.586,1.567h3.173l1.449.235-1.136-.783-.823-.235v-.353l1.959-1.254,4.348-.588,2.037-1.136v-1.332l1.214-2.115L252.1,412.8h3.212l.274,1.1.392,1.41,1.567.588.431,1.449,1.449,1.332,1.41.744v2.39l1.724.588,1.058-.979h.627v.666l-.47,2.076,1.959,1.8,1.371.392,2.311.666,1.254,1.763,1.1,1.1v1.058l.548.548,1.92-.392,2.625,1.136v.431l-2.742,3.291-1.489,3.173v2.507l-.705.431h-.94l-.94-.47h-.588v.548l-.784,1.371-2.037,1.606-.431.784-2.35,2.35v1.959l1.959-.823.666.353.862-.353.313.431-.2,2.115H267.3l-.235.235v2.39l.274,2.115.313,1.019-1.019.313-.783.548v1.606l.431.431v.392l-.313,1.293v2.037l.783,1.019,1.528.431.783,1.136-.47,1.645-5.132,2.39v.666l-3.291.823-1.88-1.489h-.705l-1.685-1.567h-2.664l-.509-.783-2.115-1.489h-.392l-1.41.979-3.251.9-1.058,2.194V474.3l-1.293-.078-4.427-.705-1.1-.509-.353-.784-1.019-1.175h-.862l-2.272-2.076h-.627l-.823.431h-1.175l-5.014-2.585-1.528-1.841-.744-.392-2-2.233v-1.293l1.136.157,3.917-7.286,1.136-.47v-.313l-.94-.47,2.272-4.975,1.019,1.645h.431l.2-.274v-1.058l-1.528-1.724v-.979l.9-.823v-2l.627-.666-1.41-.548-1.841-2.115v-1.175l-1.019-1.214v-.548l.627-.353.783-.235v-.862l-.313-.862-1.645-.783V432.7l.823-.862v-.431H225.07l-.979-1.175h-1.175l-.509-1.058-2.35-2.233h-.783l-.235.313Z" transform="translate(-217 -412.8)" fill="#47bee2" stroke="#fff" stroke-miterlimit="10" stroke-width="0.953"/>
      <circle id="Ellipse_2881-2_2_" cx="5.284" cy="5.284" r="5.284" transform="translate(4.317 35.632)" fill="#102441" opacity="0.339"/>
      <g id="Group_14061_2_" transform="translate(2.099 19.528)">
        <path id="Icon_material-location-on-13-2_2_" d="M138.721,162.6h0a7.515,7.515,0,0,0-7.521,7.482h0a12.654,12.654,0,0,0,1.606,5.445,45.329,45.329,0,0,0,5.876,8.462,45.586,45.586,0,0,0,5.837-8.344,13.064,13.064,0,0,0,1.684-5.563A7.532,7.532,0,0,0,138.721,162.6Zm-.039,4.818a2.683,2.683,0,1,1-2.664,2.7h0a2.7,2.7,0,0,1,2.664-2.7Z" transform="translate(-131.2 -162.6)" fill="#102441"/>
      </g>
    </g>
  </g>
</svg>
