<svg xmlns="http://www.w3.org/2000/svg" width="27.395" height="27.395" viewBox="0 0 27.395 27.395">
  <path id="Icon_awesome-arrow-circle-down" data-name="Icon awesome-arrow-circle-down" d="M27.958,14.26A13.7,13.7,0,1,1,14.26.563,13.7,13.7,0,0,1,27.958,14.26Zm-7.931-1.6-4,4.17V6.748A1.322,1.322,0,0,0,14.7,5.423h-.884a1.322,1.322,0,0,0-1.326,1.326V16.834l-4-4.17A1.327,1.327,0,0,0,6.6,12.642l-.6.608a1.32,1.32,0,0,0,0,1.872l7.324,7.329a1.32,1.32,0,0,0,1.872,0l7.329-7.329a1.32,1.32,0,0,0,0-1.872l-.6-.608a1.327,1.327,0,0,0-1.894.022Z" transform="translate(-0.563 -0.563)" fill="#476899"/>
</svg>
