<svg xmlns="http://www.w3.org/2000/svg" width="57.223" height="59.751" viewBox="0 0 57.223 59.751">
  <g id="Group_14289" data-name="Group 14289" transform="translate(13027.045 -5581.676)">
    <path id="Path_27425_3_" d="M218.558,426.13l-.543-.471v-.435l.254-.217v-.145L217,423.884h1.992l.4-.326V423.3l-.326-.181h-1.05l-.435-.362v-.29l1.159-.4-1.666-.326.688-1.2h5.433l.109-.4h.724l.4.4,1.087.181,1.376,2.21h1.558l.761.507h1.268l.616.8h.688l.326-.4-.326-2.354.326-1.63-.507-2.934,2.717.724.326,2.028,2.391,1.449h2.934l1.34.217-1.05-.724-.761-.217v-.326l1.811-1.159,4.021-.543,1.884-1.05V416.1l1.123-1.956,1.123-1.34h2.97l.254,1.014.362,1.3,1.449.543.4,1.34,1.34,1.232,1.3.688v2.21l1.594.543.978-.906h.58v.616l-.435,1.92,1.811,1.666,1.268.362,2.137.616,1.159,1.63,1.014,1.014v.978l.507.507,1.775-.362,2.427,1.05v.4l-2.536,3.043-1.376,2.934v2.318l-.652.4h-.869l-.869-.435H265.5v.507l-.724,1.268-1.884,1.485-.4.724-2.173,2.173v1.811l1.811-.761.616.326.8-.326.29.4-.181,1.956h-.145l-.217.217v2.21l.254,1.956.29.942-.942.29-.724.507v1.485l.4.4v.362l-.29,1.2v1.884l.724.942,1.413.4.724,1.05-.435,1.521-4.745,2.21v.616l-3.043.761-1.739-1.376h-.652l-1.558-1.449h-2.463l-.471-.724L248.079,463h-.362l-1.3.906-3.006.833-.978,2.028v2.9l-1.2-.073-4.093-.652-1.014-.471-.326-.724-.942-1.087h-.8l-2.1-1.92h-.58l-.761.4h-1.087l-4.636-2.391-1.413-1.7-.688-.362-1.847-2.065v-1.2l1.05.145,3.622-6.737,1.05-.435v-.29l-.869-.435,2.1-4.6.942,1.521h.4l.181-.254v-.978l-1.413-1.594v-.906l.833-.761v-1.847l.58-.616-1.3-.507-1.7-1.956v-1.087l-.942-1.123v-.507l.58-.326.724-.217v-.8l-.29-.8-1.521-.724v-.4l.761-.8v-.4h-1.268l-.906-1.087H222.47l-.471-.978-2.173-2.065H219.1l-.217.29Z" transform="translate(-13242.646 5169.353)" fill="#47bee2" stroke="#fff" stroke-miterlimit="10" stroke-width="0.953"/>
    <circle id="Ellipse_2881-8_2_" cx="6.085" cy="6.085" r="6.085" transform="translate(-12998.569 5629.258)" fill="#102441" opacity="0.339"/>
    <g id="Group_14062_2_" transform="translate(-12999.421 5616.565)">
      <path id="Icon_material-location-on-13-8_2_" d="M154.255,173.5h0a6.949,6.949,0,0,0-6.955,6.918h0a11.7,11.7,0,0,0,1.485,5.035,41.912,41.912,0,0,0,5.433,7.824,42.151,42.151,0,0,0,5.4-7.715,12.079,12.079,0,0,0,1.558-5.144A6.918,6.918,0,0,0,154.255,173.5Zm0,4.455a2.481,2.481,0,1,1-2.463,2.5h0a2.451,2.451,0,0,1,2.463-2.5Z" transform="translate(-147.3 -173.5)" fill="#102441"/>
    </g>
  </g>
</svg>
