<svg xmlns="http://www.w3.org/2000/svg" width="66.209" height="58.482" viewBox="0 0 66.209 58.482">
  <g id="Group_14281" data-name="Group 14281" transform="translate(-74.961 -356.023)">
    <path id="Path_27426_3_" d="M124.148,511.762l.811-.309.154-.116v-.193l-.193-.154-.657-.155-.116-.154v-.193l.27-.232.888-.463v-.154l-.232-.193-.657-.116v-.965l.425-.27-.772-.772-.348-.5.657-1,1.661-.657,3.476.5.772-1.274,1.738-.386,1.738.85,3.36,2.279,3.669,1h1.159l9.037,4.673h1.236l2.665,1.429,2.085.541,2.356,1.313,2.279.348v1.274l1.97,2.2.811.309,1.506,1.815,4.943,2.549H172l.811-.425h.618l2.24,2.047.116.579.425,1.043h1l.309-.463.348.772,1.081.5,4.364.7,1.274.077.541.541v.425l-1.12.463v2.2l-6.8,2.935-5.561.656-1.468.927L169.8,538.6l-7.569,6.835-.811.579v.425l.425.232v2.085l.618.772,1.081.811V551l-.734.85-2.279.85-4.248,4.6H153.5l-2.626,1.12-2.394,3.09h-1.12l-.772-.618h-2.433l-3.707-1.274-4.9-1.274H135l-1,.656h-.811l-.541-.386h-.579l-.927.309-2.7,1.583h-.541l-.772-.386-1.467-1.352-.7-1.738-.309-1.738-.541-.541V554.2l.541-.348V553.2l-.348-.85-2.24-2.51-2.163-.579.232-3.012,3.707-2.008.579-.618-.618-2.008v-2.433l.888-.965,1.429-.734V537.1l-.888-1.622v-2.163l.734-.734h1.815l1.313-1V530.3l1.12-2.935,1.429-2.394,1.661-1,2.356-2.124V520.3l-.5-1.12-2.472-1.313h-2.008l-2.781-1.081-.85-.965.348-.85-.425-.27H124.65l-1.274.348.232-1.2,1.661-1.313.27-.116V512.3l-.154-.077-1.043-.154-.154-.116-.039-.193Z" transform="translate(-44.434 -147.476)" fill="#47bee2" stroke="#fff" stroke-miterlimit="10" stroke-width="0.953"/>
    <circle id="Ellipse_2881_3_" cx="5.153" cy="5.153" r="5.153" transform="translate(116.822 389.089)" fill="#102441" opacity="0.339"/>
    <g id="Group_14053_2_" transform="translate(114.579 373.156)">
      <path id="Icon_material-location-on-13_3_" d="M138.315,182.9h0a7.408,7.408,0,0,0-7.415,7.376h0a12.474,12.474,0,0,0,1.583,5.368,44.687,44.687,0,0,0,5.793,8.342,44.94,44.94,0,0,0,5.754-8.226,12.878,12.878,0,0,0,1.661-5.484A7.425,7.425,0,0,0,138.315,182.9Zm-.039,4.75a2.645,2.645,0,1,1-2.626,2.665h0a2.688,2.688,0,0,1,2.626-2.665Z" transform="translate(-130.9 -182.9)" fill="#102441"/>
    </g>
  </g>
</svg>
