<svg xmlns="http://www.w3.org/2000/svg" width="61.296" height="50.107" viewBox="0 0 61.296 50.107">
  <g id="Group_14288" data-name="Group 14288" transform="translate(-649.722 -1524.069)">
    <path id="Path_27451_3_" d="M549.794,590.7l-.846-3.187-3.187-5.529h-.651v-4.163L548.038,573v-.716l-3.838-4.749v-5.855l2.147-1.3h2.6l-1.041,2.407,1.3.911,2.732.52,19.32.586L583.3,558.3h3.643l4.879,1.236,3.643,1.886,2.732-.325-.13,3.643-3.448,1.691-1.821,1.691v5.594l-2.342,2.212V577.1l1.5.846,3.253,4.228v1.171h-2.992l-1.561,1.041L587,582.824l-5.92,2.6-.976,1.236-1.951-.065v3.318l-1.561,1.561-2.537,1.5-6.375-1.041-2.212-2.017H564.04l-14.246,3.122V590.7Z" transform="translate(105.999 980.547)" fill="#47bee2" stroke="#fff" stroke-miterlimit="10" stroke-width="0.953"/>
    <circle id="Ellipse_2881-5_2_" cx="8.917" cy="8.917" r="8.917" transform="translate(689.184 1549.298)" fill="#102441" opacity="0.339"/>
    <g id="Group_14065_2_" transform="translate(686.104 1524.069)">
      <path id="Icon_material-location-on-13-5_2_" d="M234.39,180.2h0a12.479,12.479,0,0,0-12.49,12.425h0a21.012,21.012,0,0,0,2.667,9.042,75.271,75.271,0,0,0,9.758,14.051,75.7,75.7,0,0,0,9.693-13.856c1.626-3.187,2.8-6.44,2.8-9.237A12.382,12.382,0,0,0,234.39,180.2Zm0,8a4.456,4.456,0,1,1-4.423,4.488h0a4.4,4.4,0,0,1,4.423-4.488Z" transform="translate(-221.9 -180.2)" fill="#102441"/>
    </g>
  </g>
</svg>
