<svg xmlns="http://www.w3.org/2000/svg" width="26.447" height="26.44" viewBox="0 0 26.447 26.44">
  <path id="Icon_awesome-instagram" data-name="Icon awesome-instagram" d="M13.221,8.679A6.779,6.779,0,1,0,20,15.458,6.768,6.768,0,0,0,13.221,8.679Zm0,11.186a4.407,4.407,0,1,1,4.407-4.407A4.415,4.415,0,0,1,13.221,19.865ZM21.859,8.4a1.581,1.581,0,1,1-1.581-1.581A1.578,1.578,0,0,1,21.859,8.4Zm4.49,1.6a7.825,7.825,0,0,0-2.136-5.54,7.876,7.876,0,0,0-5.54-2.136c-2.183-.124-8.726-.124-10.909,0a7.865,7.865,0,0,0-5.54,2.13A7.851,7.851,0,0,0,.088,10c-.124,2.183-.124,8.726,0,10.909a7.825,7.825,0,0,0,2.136,5.54,7.886,7.886,0,0,0,5.54,2.136c2.183.124,8.726.124,10.909,0a7.825,7.825,0,0,0,5.54-2.136,7.876,7.876,0,0,0,2.136-5.54c.124-2.183.124-8.72,0-10.9Zm-2.82,13.245a4.462,4.462,0,0,1-2.513,2.513c-1.74.69-5.87.531-7.794.531s-6.059.153-7.794-.531a4.462,4.462,0,0,1-2.513-2.513c-.69-1.74-.531-5.87-.531-7.794S2.229,9.4,2.914,7.664A4.462,4.462,0,0,1,5.427,5.151c1.74-.69,5.87-.531,7.794-.531s6.059-.153,7.794.531a4.462,4.462,0,0,1,2.513,2.513c.69,1.74.531,5.87.531,7.794S24.219,21.517,23.528,23.252Z" transform="translate(0.005 -2.238)" fill="#172640"/>
</svg>
