<svg xmlns="http://www.w3.org/2000/svg" width="60.967" height="85.145" viewBox="0 0 60.967 85.145">
  <g id="Group_14284" data-name="Group 14284" transform="translate(12641.005 -5356.162)">
    <path id="Path_27443_3_" d="M370.983,518.462v1.119l-1.2,1.518v2.077l.719,2.317,4.594,3.8h.559l.519.679v1.318l2.037,5.912,2.157,2.717.8.4v.479l.2.36h.479l1.678,2h.16l.28-.4h3.116l.439-.36h.879l.4.639v1.159l-1.278.919v.8l2.6,1.4,3.675,1.678,1.119,1.278,3.715,1.678,3,4.514-1.079,1.718h-.559l-.879-1.039-.8-1.6-1.957-.719-2-1.4h-1.079l-2.317,2.437-.639,2.237-.12.6.919.32,1.758,1.638.28.479v3.356l-2.517.759-.479.519v2.916l-1.4.679-1.438,2.517-1.278.2-1-.359v-2.077l.519-1.119.679-.719v-.2l-.519-.28v-.679l.36-.32,1.918-.879v-.959l-2.277-7.391-.4-1.079h-.6l-.479.479h-.36l-.639-1-.759-.28-1-.679v-.559l.24-.28v-.839l-.4-.839-.679-.32h-1.478l-.36-.28-.24-1.119-.519-.28-.8.28-1.838-3.436-3.555-.4-.639-.32-4.634-5.753h-1l-.2-.08.2-.439-1.8-2.437h-1.6l-.32-.2.2-1.159-2.677-4.035-.959-6.711-5.673-4.195h-1.918l-1.358.8-1.918,2.517H344.5l.479-1.678-.8-1.159-1.558-.439-.8-1.039v-2.077l.32-1.318v-.4l-.439-.439v-1.638l.8-.559,1.039-.32-.32-1.039-.28-2.157v-2.4l.24-.24h.16l.6,1.358,2.077.4h2.277l1.718-1.478v-.759l.839-.639h1.039v2.077l.8.519.959,1.159h.439L356,506.916h.439l.879.639,2.277.8h.4l.2-.28V506.2l.16-.12h1.119l.16-.12.519-1.318.8.32,6.512-.719.679-.24.8.28v1.558l2.677,1.8,4.235,1.159-1.438,1.238v1.4l.679.36v1.758l1.838,1.558-.24.719h-1.558l.679-.479v-.959l-.24-.32-.959.16h-1.438l-5.193,2.117v1.318l1,.8Z" transform="translate(-12982.229 4860.368)" fill="#47bee2" stroke="#fff" stroke-miterlimit="10" stroke-width="0.953"/>
    <path id="Path_27474_3_" d="M407.095,665.74h1.558l1.638,1.878h3.875l2.517-.719H418.4l.639-.759h2.237l-.08,1.318-3.276,4.594v.479l.679,1.2.519,1.558-.519,1.758-.36.519h-1.758l-1.4-.479-2.677-2.517-2.2-.839-2.956-2.517-3.516-1.478-.839-.959v-.759l1.2-2.317h.4l.919.719H406.5l.6-.679Z" transform="translate(-13018.979 4763.265)" fill="#47bee2" stroke="#fff" stroke-miterlimit="10" stroke-width="0.953"/>
    <path id="Path_27500_3_" d="M350.8,606.657l3.316-2.357h.519l1.6,1.318.479,2.557v1.638l-.6,2.077-.439,4.195-.4,2.437-.8,1.518h-.479l-.959-.559h-.8l-1.358,1.678h-1.159l-.28-.719-.919-1.079-.32-3.236.519-1.558.679-.839-.36-4.914-.759-.359v-1.918l.36-.8H349l.639.919Z" transform="translate(-12986.131 4800.136)" fill="#47bee2" stroke="#fff" stroke-miterlimit="10" stroke-width="0.953"/>
    <circle id="Ellipse_2881-9_2_" cx="3.468" cy="3.468" r="3.468" transform="translate(-12614.73 5373.507)" fill="#102441" opacity="0.339"/>
    <g id="Group_14066_2_" transform="translate(-12618.913 5356.162)">
      <path id="Icon_material-location-on-13-9_2_" d="M180.57,167.6h0a7.664,7.664,0,0,0-7.67,7.63h0a12.9,12.9,0,0,0,1.638,5.553,46.228,46.228,0,0,0,5.992,8.629,46.488,46.488,0,0,0,5.952-8.509,13.322,13.322,0,0,0,1.718-5.673A7.655,7.655,0,0,0,180.57,167.6Zm0,4.914a2.737,2.737,0,1,1-2.717,2.756h0a2.728,2.728,0,0,1,2.717-2.756Z" transform="translate(-172.9 -167.6)" fill="#102441"/>
    </g>
  </g>
</svg>
