<svg xmlns="http://www.w3.org/2000/svg" width="25.929" height="55.997" viewBox="0 0 25.929 55.997">
  <g id="Group_14293" data-name="Group 14293" transform="translate(12396.143 -5659.734)">
    <path id="Path_27442_3_" d="M739.549,749.56l1.236-8.847,4.879-.781.52-2.732.911.2v2.927l.586,3.188v.26l-.846.52.716,3.318v5.529l1.041,1.821-.39,3.318.715,5.789-1.561,5.659.2,14.506h-1.3L734.8,763.025l4.033-5.4.716-8.066Z" transform="translate(-13119.614 4931.023)" fill="#47bee2" stroke="#fff" stroke-miterlimit="10" stroke-width="0.953"/>
    <circle id="Ellipse_2881-7_2_" cx="8.917" cy="8.917" r="8.917" transform="translate(-12392.603 5685.334)" fill="#102441" opacity="0.339"/>
    <g id="Group_14068_2_" transform="translate(-12396.143 5659.734)">
      <path id="Icon_material-location-on-13-7_2_" d="M262.79,225.6h0a12.479,12.479,0,0,0-12.49,12.425h0a21.012,21.012,0,0,0,2.667,9.042,75.27,75.27,0,0,0,9.758,14.051,75.7,75.7,0,0,0,9.693-13.856c1.626-3.187,2.8-6.44,2.8-9.237A12.382,12.382,0,0,0,262.79,225.6Zm0,7.936a4.456,4.456,0,1,1-4.423,4.488h0a4.484,4.484,0,0,1,4.423-4.488Z" transform="translate(-250.3 -225.6)" fill="#102441"/>
    </g>
  </g>
</svg>
