<svg width="402" height="102" viewBox="0 0 402 102" fill="none" xmlns="http://www.w3.org/2000/svg">
<path d="M205.6 10.1001L204.9 12.1001H204L206.2 5.6001H207.2L209.4 12.1001H208.5L207.8 10.1001H205.6ZM207.7 9.40009L207.1 7.50009C207 7.10009 206.9 6.70008 206.8 6.30008C206.7 6.70008 206.6 7.10009 206.5 7.50009L205.9 9.40009H207.7Z" fill="white"/>
<path d="M212.5 9.00003C212.5 8.40003 212.5 7.90003 212.5 7.50003H213.3V8.30002C213.6 7.70002 214.2 7.40002 215 7.40002C216.1 7.40002 217 8.40002 217 9.80002C217 11.5 216 12.3 214.9 12.3C214.3 12.3 213.7 12 213.5 11.6V14H212.7V9.00003H212.5ZM213.3 10.2C213.3 10.3 213.3 10.4 213.3 10.5C213.5 11.1 214 11.5 214.6 11.5C215.5 11.5 216 10.8 216 9.70004C216 8.80004 215.5 8.00003 214.6 8.00003C214 8.00003 213.5 8.40004 213.3 9.10004C213.3 9.20004 213.2 9.30002 213.2 9.40002V10.2H213.3Z" fill="white"/>
<path d="M218.4 9.90005C218.4 11.0001 219.2 11.5001 220 11.5001C220.6 11.5001 221 11.4 221.3 11.3L221.4 11.9001C221.1 12.0001 220.6 12.2001 219.8 12.2001C218.4 12.2001 217.5 11.3 217.5 9.80005C217.5 8.40005 218.3 7.30005 219.7 7.30005C221.2 7.30005 221.6 8.60006 221.6 9.50006C221.6 9.70006 221.6 9.80005 221.6 9.90005H218.4ZM220.9 9.30005C220.9 8.80005 220.7 7.90005 219.7 7.90005C218.8 7.90005 218.5 8.70005 218.4 9.30005H220.9Z" fill="white"/>
<path d="M223.3 9.90005C223.3 11.0001 224.1 11.5001 224.9 11.5001C225.5 11.5001 225.9 11.4 226.2 11.3L226.3 11.9001C226 12.0001 225.5 12.2001 224.7 12.2001C223.3 12.2001 222.4 11.3 222.4 9.80005C222.4 8.40005 223.2 7.30005 224.6 7.30005C226.1 7.30005 226.5 8.60006 226.5 9.50006C226.5 9.70006 226.5 9.80005 226.5 9.90005H223.3ZM225.7 9.30005C225.7 8.80005 225.5 7.90005 224.5 7.90005C223.6 7.90005 223.3 8.70005 223.2 9.30005H225.7Z" fill="white"/>
<path d="M227.6 8.90005C227.6 8.30005 227.6 7.90005 227.6 7.40005H228.3V8.30005C228.5 7.70005 229 7.30005 229.6 7.30005C229.7 7.30005 229.8 7.30005 229.8 7.30005V8.10007C229.7 8.10007 229.6 8.10007 229.5 8.10007C228.9 8.10007 228.5 8.60007 228.4 9.20007C228.4 9.30007 228.4 9.50007 228.4 9.60007V12.1001H227.6V8.90005Z" fill="white"/>
<path d="M232.701 9.20007V9.80005H230.301V9.20007H232.701Z" fill="white"/>
<path d="M233.699 8.90005C233.699 8.30005 233.699 7.90005 233.699 7.40005H234.399V8.30005C234.599 7.70005 235.099 7.30005 235.699 7.30005C235.799 7.30005 235.899 7.30005 235.899 7.30005V8.10007C235.799 8.10007 235.699 8.10007 235.599 8.10007C234.999 8.10007 234.599 8.60007 234.499 9.20007C234.499 9.30007 234.499 9.50007 234.499 9.60007V12.1001H233.699V8.90005Z" fill="white"/>
<path d="M237.201 9.90005C237.201 11.0001 238.001 11.5001 238.801 11.5001C239.401 11.5001 239.801 11.4 240.101 11.3L240.201 11.9001C239.901 12.0001 239.401 12.2001 238.601 12.2001C237.201 12.2001 236.301 11.3 236.301 9.80005C236.301 8.40005 237.101 7.30005 238.501 7.30005C240.001 7.30005 240.401 8.60006 240.401 9.50006C240.401 9.70006 240.401 9.80005 240.401 9.90005H237.201ZM239.701 9.30005C239.701 8.80005 239.501 7.90005 238.501 7.90005C237.601 7.90005 237.301 8.70005 237.201 9.30005H239.701Z" fill="white"/>
<path d="M241.9 7.5L242.8 10.1C243 10.5 243.1 10.9 243.2 11.3C243.3 10.9 243.4 10.5 243.6 10.1L244.5 7.5H245.4L243.6 12.2H242.8L241 7.5H241.9Z" fill="white"/>
<path d="M247.199 6.1001C247.199 6.4001 246.999 6.6001 246.699 6.6001C246.399 6.6001 246.199 6.4001 246.199 6.1001C246.199 5.8001 246.399 5.6001 246.699 5.6001C246.999 5.6001 247.199 5.8001 247.199 6.1001ZM246.199 12.1001V7.50009H246.999V12.2001H246.199V12.1001Z" fill="white"/>
<path d="M249 9.90005C249 11.0001 249.8 11.5001 250.6 11.5001C251.2 11.5001 251.6 11.4 251.9 11.3L252 11.9001C251.7 12.0001 251.2 12.2001 250.4 12.2001C249 12.2001 248.1 11.3 248.1 9.80005C248.1 8.40005 248.9 7.30005 250.3 7.30005C251.8 7.30005 252.2 8.60006 252.2 9.50006C252.2 9.70006 252.2 9.80005 252.2 9.90005H249ZM251.5 9.30005C251.5 8.80005 251.3 7.90005 250.3 7.90005C249.4 7.90005 249.1 8.70005 249 9.30005H251.5Z" fill="white"/>
<path d="M253.699 7.5L254.299 9.89999C254.399 10.4 254.599 10.9 254.599 11.4C254.699 10.9 254.899 10.4 254.999 9.89999L255.799 7.5H256.499L257.199 9.79999C257.399 10.4 257.499 10.9 257.599 11.3C257.699 10.8 257.799 10.3 257.999 9.79999L258.699 7.5H259.499L257.999 12.2H257.199L256.499 10C256.299 9.5 256.199 9 256.099 8.5C255.999 9.1 255.799 9.5 255.699 10L254.899 12.2H254.099L252.699 7.5H253.699Z" fill="white"/>
<path d="M260.8 9.90005C260.8 11.0001 261.6 11.5001 262.4 11.5001C263 11.5001 263.4 11.4 263.7 11.3L263.8 11.9001C263.5 12.0001 263 12.2001 262.2 12.2001C260.8 12.2001 259.9 11.3 259.9 9.80005C259.9 8.40005 260.7 7.30005 262.1 7.30005C263.6 7.30005 264 8.60006 264 9.50006C264 9.70006 264 9.80005 264 9.90005H260.8ZM263.3 9.30005C263.3 8.80005 263.1 7.90005 262.1 7.90005C261.2 7.90005 260.9 8.70005 260.8 9.30005H263.3Z" fill="white"/>
<path d="M269.201 5.30005V10.9001C269.201 11.3001 269.201 11.8001 269.201 12.1001H268.401V11.3C268.101 11.8 267.601 12.2001 266.801 12.2001C265.701 12.2001 264.801 11.2 264.801 9.80005C264.801 8.20005 265.801 7.30005 266.901 7.30005C267.601 7.30005 268.101 7.60006 268.301 8.00006V5.30005H269.201ZM268.401 9.40005C268.401 9.30005 268.401 9.10006 268.401 9.00006C268.301 8.50006 267.801 8.00006 267.201 8.00006C266.301 8.00006 265.801 8.80005 265.801 9.80005C265.801 10.7 266.301 11.5001 267.201 11.5001C267.801 11.5001 268.301 11.1001 268.401 10.5001C268.401 10.4001 268.401 10.3001 268.401 10.1001V9.40005Z" fill="white"/>
<path d="M276.9 9.80006C276.9 11.5001 275.7 12.3001 274.6 12.3001C273.3 12.3001 272.4 11.4001 272.4 9.90006C272.4 8.30006 273.4 7.40006 274.7 7.40006C276 7.30006 276.9 8.30006 276.9 9.80006ZM273.2 9.80006C273.2 10.8001 273.8 11.6001 274.6 11.6001C275.4 11.6001 276 10.8001 276 9.80006C276 9.00006 275.6 8.00007 274.6 8.00007C273.6 8.00007 273.2 8.90006 273.2 9.80006Z" fill="white"/>
<path d="M278 9.00003C278 8.40003 278 7.90003 278 7.50003H278.8V8.30002C279.1 7.70002 279.7 7.40002 280.5 7.40002C281.6 7.40002 282.5 8.40002 282.5 9.80002C282.5 11.5 281.5 12.3 280.4 12.3C279.8 12.3 279.2 12 279 11.6V14H278V9.00003ZM278.8 10.2C278.8 10.3 278.8 10.4 278.8 10.5C279 11.1 279.5 11.5 280.1 11.5C281 11.5 281.5 10.8 281.5 9.70004C281.5 8.80004 281 8.00003 280.1 8.00003C279.5 8.00003 279 8.40004 278.8 9.10004C278.8 9.20004 278.7 9.30002 278.7 9.40002V10.2H278.8Z" fill="white"/>
<path d="M283.9 9.90005C283.9 11.0001 284.7 11.5001 285.5 11.5001C286.1 11.5001 286.5 11.4 286.8 11.3L286.9 11.9001C286.6 12.0001 286.1 12.2001 285.3 12.2001C283.9 12.2001 283 11.3 283 9.80005C283 8.40005 283.8 7.30005 285.2 7.30005C286.7 7.30005 287.1 8.60006 287.1 9.50006C287.1 9.70006 287.1 9.80005 287.1 9.90005H283.9ZM286.4 9.30005C286.4 8.80005 286.2 7.90005 285.2 7.90005C284.3 7.90005 284 8.70005 283.9 9.30005H286.4Z" fill="white"/>
<path d="M288.301 8.70007C288.301 8.20007 288.301 7.80005 288.301 7.40005H289.101V8.20007C289.301 7.80007 289.901 7.30005 290.601 7.30005C291.201 7.30005 292.301 7.70005 292.301 9.30005V12.1001H291.501V9.40005C291.501 8.60005 291.201 8.00006 290.401 8.00006C289.801 8.00006 289.401 8.40005 289.301 8.90005C289.301 9.00005 289.201 9.20005 289.201 9.30005V12.1001H288.401V8.70007H288.301Z" fill="white"/>
<path d="M295.599 9.20007V9.80005H293.199V9.20007H295.599Z" fill="white"/>
<path d="M299.201 12.1001L299.101 11.5001C298.801 11.9001 298.301 12.2001 297.701 12.2001C296.801 12.2001 296.301 11.5001 296.301 10.9001C296.301 9.80005 297.301 9.20007 299.101 9.20007V9.10007C299.101 8.70007 299.001 8.00006 298.001 8.00006C297.601 8.00006 297.101 8.10005 296.801 8.30005L296.601 7.70007C297.001 7.40007 297.501 7.30005 298.101 7.30005C299.501 7.30005 299.901 8.30007 299.901 9.20007V11.0001C299.901 11.4001 299.901 11.8001 300.001 12.1001H299.201ZM299.101 9.70007C298.201 9.70007 297.101 9.80005 297.101 10.8C297.101 11.3 297.501 11.6001 297.901 11.6001C298.501 11.6001 298.901 11.2 299.001 10.8C299.001 10.7 299.001 10.6001 299.001 10.5001V9.70007H299.101Z" fill="white"/>
<path d="M304.6 12C304.4 12.1 303.9 12.3 303.3 12.3C301.9 12.3 301 11.3 301 9.90002C301 8.50002 302 7.40002 303.5 7.40002C304 7.40002 304.4 7.50004 304.7 7.60004L304.5 8.30002C304.3 8.20002 304 8.10004 303.5 8.10004C302.4 8.10004 301.8 8.90002 301.8 9.90002C301.8 11 302.5 11.6 303.4 11.6C303.9 11.6 304.2 11.5 304.4 11.4L304.6 12Z" fill="white"/>
<path d="M308.901 12C308.701 12.1 308.201 12.3 307.601 12.3C306.201 12.3 305.301 11.3 305.301 9.90002C305.301 8.50002 306.301 7.40002 307.801 7.40002C308.301 7.40002 308.701 7.50004 309.001 7.60004L308.801 8.30002C308.601 8.20002 308.301 8.10004 307.801 8.10004C306.701 8.10004 306.201 8.90002 306.201 9.90002C306.201 11 306.901 11.6 307.801 11.6C308.301 11.6 308.601 11.5 308.801 11.4L308.901 12Z" fill="white"/>
<path d="M310.3 9.90005C310.3 11.0001 311.1 11.5001 311.9 11.5001C312.5 11.5001 312.9 11.4 313.2 11.3L313.3 11.9001C313 12.0001 312.5 12.2001 311.7 12.2001C310.3 12.2001 309.4 11.3 309.4 9.80005C309.4 8.40005 310.2 7.30005 311.6 7.30005C313.1 7.30005 313.5 8.60006 313.5 9.50006C313.5 9.70006 313.5 9.80005 313.5 9.90005H310.3ZM312.8 9.30005C312.8 8.80005 312.6 7.90005 311.6 7.90005C310.7 7.90005 310.4 8.70005 310.3 9.30005H312.8Z" fill="white"/>
<path d="M314.501 11.3C314.801 11.5 315.201 11.6001 315.601 11.6001C316.201 11.6001 316.501 11.3001 316.501 10.9001C316.501 10.5001 316.301 10.3001 315.601 10.0001C314.801 9.70006 314.401 9.20007 314.401 8.70007C314.401 7.90007 315.001 7.30005 316.001 7.30005C316.501 7.30005 316.901 7.40007 317.101 7.60007L317.001 8.30005C316.801 8.20005 316.501 8.00006 316.001 8.00006C315.501 8.00006 315.201 8.30007 315.201 8.60007C315.201 9.00007 315.501 9.20005 316.101 9.40005C316.901 9.70005 317.301 10.1 317.301 10.8C317.301 11.6 316.701 12.2001 315.601 12.2001C315.101 12.2001 314.601 12.1001 314.301 11.9001L314.501 11.3Z" fill="white"/>
<path d="M318.3 11.3C318.6 11.5 319 11.6001 319.4 11.6001C320 11.6001 320.3 11.3001 320.3 10.9001C320.3 10.5001 320.1 10.3001 319.4 10.0001C318.6 9.70006 318.2 9.20007 318.2 8.70007C318.2 7.90007 318.8 7.30005 319.8 7.30005C320.3 7.30005 320.7 7.40007 320.9 7.60007L320.7 8.20007C320.5 8.10007 320.2 7.90005 319.7 7.90005C319.2 7.90005 318.9 8.20006 318.9 8.50006C318.9 8.90006 319.2 9.10005 319.8 9.30005C320.6 9.60005 321 10.0001 321 10.7001C321 11.5001 320.4 12.1001 319.3 12.1001C318.8 12.1001 318.3 12 318 11.8L318.3 11.3Z" fill="white"/>
<path d="M323.199 13.5001C323.599 13.5001 323.899 13.4001 324.099 13.1001C324.299 12.8001 324.399 12.5001 324.399 11.3001V7.50009H325.199V11.7001C325.199 12.6001 325.099 13.2001 324.599 13.6001C324.199 14.0001 323.599 14.1001 323.199 14.1001V13.5001ZM325.399 6.1001C325.399 6.4001 325.199 6.6001 324.899 6.6001C324.599 6.6001 324.399 6.4001 324.399 6.1001C324.399 5.8001 324.599 5.6001 324.899 5.6001C325.199 5.6001 325.399 5.8001 325.399 6.1001Z" fill="white"/>
<path d="M330.9 9.80006C330.9 11.5001 329.7 12.3001 328.6 12.3001C327.3 12.3001 326.4 11.4001 326.4 9.90006C326.4 8.30006 327.4 7.40006 328.7 7.40006C330 7.30006 330.9 8.30006 330.9 9.80006ZM327.2 9.80006C327.2 10.8001 327.8 11.6001 328.6 11.6001C329.4 11.6001 330 10.8001 330 9.80006C330 9.00006 329.6 8.00007 328.6 8.00007C327.6 8.00007 327.2 8.90006 327.2 9.80006Z" fill="white"/>
<path d="M335.9 10.9C335.9 11.4 335.9 11.8 335.9 12.2H335.1V11.4C334.9 11.8 334.4 12.3 333.6 12.3C332.9 12.3 332 11.9 332 10.3V7.5H332.8V10C332.8 10.9 333.1 11.5 333.8 11.5C334.4 11.5 334.8 11.1 334.9 10.7C334.9 10.6 335 10.4 335 10.3V7.5H335.8V10.9H335.9Z" fill="white"/>
<path d="M337.301 8.90005C337.301 8.30005 337.301 7.90005 337.301 7.40005H338.001V8.30005C338.201 7.70005 338.701 7.30005 339.301 7.30005C339.401 7.30005 339.501 7.30005 339.501 7.30005V8.10007C339.401 8.10007 339.301 8.10007 339.201 8.10007C338.601 8.10007 338.201 8.60007 338.101 9.20007C338.101 9.30007 338.101 9.50007 338.101 9.60007V12.1001H337.301V8.90005Z" fill="white"/>
<path d="M340.5 8.70007C340.5 8.20007 340.5 7.80005 340.5 7.40005H341.3V8.20007C341.5 7.80007 342.1 7.30005 342.8 7.30005C343.4 7.30005 344.4 7.70005 344.4 9.30005V12.1001H343.6V9.40005C343.6 8.60005 343.3 8.00006 342.5 8.00006C341.9 8.00006 341.5 8.40005 341.4 8.90005C341.4 9.00005 341.3 9.20005 341.3 9.30005V12.1001H340.5V8.70007Z" fill="white"/>
<path d="M348.4 12.1001L348.3 11.5001C348 11.9001 347.5 12.2001 346.9 12.2001C346 12.2001 345.5 11.5001 345.5 10.9001C345.5 9.80005 346.5 9.20007 348.3 9.20007V9.10007C348.3 8.70007 348.2 8.00006 347.2 8.00006C346.8 8.00006 346.3 8.10005 346 8.30005L345.8 7.70007C346.2 7.40007 346.7 7.30005 347.3 7.30005C348.7 7.30005 349.1 8.30007 349.1 9.20007V11.0001C349.1 11.4001 349.1 11.8001 349.2 12.1001H348.4ZM348.3 9.70007C347.4 9.70007 346.3 9.80005 346.3 10.8C346.3 11.3 346.7 11.6001 347.1 11.6001C347.7 11.6001 348.1 11.2 348.2 10.8C348.2 10.7 348.2 10.6001 348.2 10.5001V9.70007H348.3Z" fill="white"/>
<path d="M350.5 5.30005H351.3V12.2001H350.5V5.30005Z" fill="white"/>
<path d="M117.199 90.7001H117.999V96.5001H120.799V97.2001H117.199V90.7001Z" fill="white"/>
<path d="M124.298 97.2L124.198 96.6C123.898 97 123.398 97.3 122.798 97.3C121.898 97.3 121.398 96.6 121.398 96C121.398 94.9 122.398 94.3 124.198 94.3V94.2C124.198 93.8 124.098 93.1 123.098 93.1C122.698 93.1 122.198 93.2 121.898 93.4L121.698 92.8C122.098 92.5 122.598 92.4 123.198 92.4C124.598 92.4 124.998 93.4 124.998 94.3V96C124.998 96.4 124.998 96.8 125.098 97.1H124.298V97.2ZM124.198 94.8C123.298 94.8 122.198 94.9 122.198 95.9C122.198 96.4 122.598 96.7 122.998 96.7C123.598 96.7 123.998 96.3 124.098 95.9C124.098 95.8 124.098 95.7 124.098 95.6L124.198 94.8Z" fill="white"/>
<path d="M130.298 95.9001C130.298 96.4001 130.298 96.8001 130.298 97.2001H129.498V96.4001C129.298 96.8001 128.798 97.3001 127.998 97.3001C127.298 97.3001 126.398 96.9001 126.398 95.3001V92.6001H127.198V95.2001C127.198 96.1001 127.498 96.7001 128.198 96.7001C128.798 96.7001 129.198 96.3001 129.298 95.9001C129.298 95.8001 129.398 95.6001 129.398 95.5001V92.6001H130.198L130.298 95.9001Z" fill="white"/>
<path d="M131.699 93.8C131.699 93.3 131.699 92.9 131.699 92.5H132.499V93.3C132.699 92.9 133.299 92.4 133.999 92.4C134.599 92.4 135.599 92.8 135.599 94.4V97.2H134.799V94.5C134.799 93.7 134.499 93.1 133.699 93.1C133.099 93.1 132.699 93.5 132.599 94C132.599 94.1 132.499 94.3 132.499 94.4V97.2H131.699V93.8Z" fill="white"/>
<path d="M140.399 97C140.199 97.1 139.699 97.3 139.099 97.3C137.699 97.3 136.799 96.3 136.799 94.9C136.799 93.5 137.799 92.4 139.299 92.4C139.799 92.4 140.199 92.5 140.499 92.6L140.299 93.3C140.099 93.2 139.799 93.1 139.299 93.1C138.199 93.1 137.599 93.9 137.599 94.9C137.599 96 138.299 96.6 139.199 96.6C139.699 96.6 139.999 96.5 140.199 96.4L140.399 97Z" fill="white"/>
<path d="M141.398 90.4H142.198V93.3C142.298 93.1 142.498 92.8 142.798 92.7C143.098 92.6 143.398 92.5 143.698 92.5C144.298 92.5 145.298 92.9 145.298 94.5V97.3H144.498V94.6C144.498 93.8 144.198 93.2 143.398 93.2C142.898 93.2 142.398 93.6 142.298 94C142.298 94.1 142.198 94.2 142.198 94.4V97.2H141.398V90.4Z" fill="white"/>
<path d="M147.199 95C147.199 96.1 147.999 96.6 148.799 96.6C149.399 96.6 149.799 96.5 150.099 96.4L150.199 97C149.899 97.1 149.399 97.3 148.599 97.3C147.199 97.3 146.299 96.4 146.299 94.9C146.299 93.5 147.099 92.4 148.499 92.4C149.999 92.4 150.399 93.7 150.399 94.6C150.399 94.8 150.399 94.9 150.399 95H147.199ZM149.699 94.4C149.699 93.9 149.499 93 148.499 93C147.599 93 147.299 93.8 147.199 94.4H149.699Z" fill="white"/>
<path d="M155.599 90.4001V96.0001C155.599 96.4001 155.599 96.9001 155.599 97.2001H154.799V96.4001C154.499 96.9001 153.999 97.3 153.199 97.3C152.099 97.3 151.199 96.3001 151.199 94.9001C151.199 93.3001 152.199 92.4001 153.299 92.4001C153.999 92.4001 154.499 92.7001 154.699 93.1001V90.3H155.599V90.4001ZM154.799 94.4001C154.799 94.3001 154.799 94.1001 154.799 94.0001C154.699 93.5001 154.199 93.0001 153.599 93.0001C152.699 93.0001 152.199 93.8 152.199 94.8C152.199 95.7 152.699 96.5001 153.599 96.5001C154.199 96.5001 154.699 96.1001 154.799 95.5001C154.799 95.4001 154.799 95.3001 154.799 95.1001V94.4001Z" fill="white"/>
<path d="M160.1 91.2001V92.5001H161.3V93.1001H160.1V95.6001C160.1 96.2001 160.3 96.5001 160.7 96.5001C160.9 96.5001 161.1 96.5001 161.2 96.4001V97.0001C161 97.1001 160.8 97.1001 160.4 97.1001C160 97.1001 159.7 97.0001 159.5 96.7001C159.3 96.4001 159.2 96.0001 159.2 95.5001V93.0001H158.5V92.4001H159.2V91.3L160.1 91.2001Z" fill="white"/>
<path d="M166.398 94.8C166.398 96.5 165.198 97.3 164.098 97.3C162.798 97.3 161.898 96.4 161.898 94.9C161.898 93.3 162.898 92.4 164.198 92.4C165.498 92.4 166.398 93.4 166.398 94.8ZM162.698 94.9C162.698 95.9 163.298 96.7 164.098 96.7C164.898 96.7 165.498 95.9 165.498 94.9C165.498 94.1 165.098 93.1 164.098 93.1C163.098 93.1 162.698 94 162.698 94.9Z" fill="white"/>
<path d="M172.099 97.2L171.999 96.6C171.699 97 171.199 97.3 170.599 97.3C169.699 97.3 169.199 96.6 169.199 96C169.199 94.9 170.199 94.3 171.999 94.3V94.2C171.999 93.8 171.899 93.1 170.899 93.1C170.499 93.1 169.999 93.2 169.699 93.4L169.499 92.8C169.899 92.5 170.399 92.4 170.999 92.4C172.399 92.4 172.799 93.4 172.799 94.3V96C172.799 96.4 172.799 96.8 172.899 97.1H172.099V97.2ZM171.999 94.8C171.099 94.8 169.999 94.9 169.999 95.9C169.999 96.4 170.399 96.7 170.799 96.7C171.399 96.7 171.799 96.3 171.899 95.9C171.899 95.8 171.899 95.7 171.899 95.6L171.999 94.8Z" fill="white"/>
<path d="M177.498 97C177.298 97.1 176.798 97.3 176.198 97.3C174.798 97.3 173.898 96.3 173.898 94.9C173.898 93.5 174.898 92.4 176.398 92.4C176.898 92.4 177.298 92.5 177.598 92.6L177.398 93.3C177.198 93.2 176.898 93.1 176.398 93.1C175.298 93.1 174.698 93.9 174.698 94.9C174.698 96 175.398 96.6 176.298 96.6C176.798 96.6 177.098 96.5 177.298 96.4L177.498 97Z" fill="white"/>
<path d="M181.799 97C181.599 97.1 181.099 97.3 180.499 97.3C179.099 97.3 178.199 96.3 178.199 94.9C178.199 93.5 179.199 92.4 180.699 92.4C181.199 92.4 181.599 92.5 181.899 92.6L181.699 93.3C181.499 93.2 181.199 93.1 180.699 93.1C179.599 93.1 178.999 93.9 178.999 94.9C178.999 96 179.699 96.6 180.599 96.6C181.099 96.6 181.399 96.5 181.599 96.4L181.799 97Z" fill="white"/>
<path d="M183.199 95C183.199 96.1 183.999 96.6 184.799 96.6C185.399 96.6 185.799 96.5 186.099 96.4L186.199 97C185.899 97.1 185.399 97.3 184.599 97.3C183.199 97.3 182.299 96.4 182.299 94.9C182.299 93.5 183.099 92.4 184.499 92.4C185.999 92.4 186.399 93.7 186.399 94.6C186.399 94.8 186.399 94.9 186.399 95H183.199ZM185.699 94.4C185.699 93.9 185.499 93 184.499 93C183.599 93 183.299 93.8 183.199 94.4H185.699Z" fill="white"/>
<path d="M187.6 90.4H188.4V97.3H187.6V90.4Z" fill="white"/>
<path d="M190.298 95C190.298 96.1 191.098 96.6 191.898 96.6C192.498 96.6 192.898 96.5 193.198 96.4L193.298 97C192.998 97.1 192.498 97.3 191.698 97.3C190.298 97.3 189.398 96.4 189.398 94.9C189.398 93.5 190.198 92.4 191.598 92.4C193.098 92.4 193.498 93.7 193.498 94.6C193.498 94.8 193.498 94.9 193.498 95H190.298ZM192.798 94.4C192.798 93.9 192.598 93 191.598 93C190.698 93 190.398 93.8 190.298 94.4H192.798Z" fill="white"/>
<path d="M194.699 94C194.699 93.5 194.699 93 194.699 92.5H195.399V93.4C195.599 92.8 196.099 92.4 196.699 92.4C196.799 92.4 196.899 92.4 196.899 92.4V93.2C196.799 93.2 196.699 93.2 196.599 93.2C195.999 93.2 195.599 93.7 195.499 94.3C195.499 94.4 195.499 94.6 195.499 94.7V97.2H194.699V94Z" fill="white"/>
<path d="M200.4 97.2L200.3 96.6C200 97 199.5 97.3 198.9 97.3C198 97.3 197.5 96.6 197.5 96C197.5 94.9 198.5 94.3 200.3 94.3V94.2C200.3 93.8 200.2 93.1 199.2 93.1C198.8 93.1 198.3 93.2 198 93.4L197.8 92.8C198.2 92.5 198.7 92.4 199.3 92.4C200.7 92.4 201.1 93.4 201.1 94.3V96C201.1 96.4 201.1 96.8 201.2 97.1H200.4V97.2ZM200.3 94.8C199.4 94.8 198.3 94.9 198.3 95.9C198.3 96.4 198.7 96.7 199.1 96.7C199.7 96.7 200.1 96.3 200.2 95.9C200.2 95.8 200.2 95.7 200.2 95.6L200.3 94.8Z" fill="white"/>
<path d="M203.399 91.2001V92.5001H204.599V93.1001H203.399V95.6001C203.399 96.2001 203.599 96.5001 203.999 96.5001C204.199 96.5001 204.399 96.5001 204.499 96.4001V97.0001C204.299 97.1001 204.099 97.1001 203.699 97.1001C203.299 97.1001 202.999 97.0001 202.799 96.7001C202.599 96.4001 202.499 96.0001 202.499 95.5001V93.0001H201.799V92.4001H202.499V91.3L203.399 91.2001Z" fill="white"/>
<path d="M206 95C206 96.1 206.8 96.6 207.6 96.6C208.2 96.6 208.6 96.5 208.9 96.4L209 97C208.7 97.1 208.2 97.3 207.4 97.3C206 97.3 205.1 96.4 205.1 94.9C205.1 93.5 205.9 92.4 207.3 92.4C208.8 92.4 209.2 93.7 209.2 94.6C209.2 94.8 209.2 94.9 209.2 95H206ZM208.5 94.4C208.5 93.9 208.3 93 207.3 93C206.4 93 206.1 93.8 206 94.4H208.5Z" fill="white"/>
<path d="M212.398 97.2C212.398 96.9 212.398 96.4 212.398 96V90.4H213.198V93.3C213.498 92.8 213.998 92.4 214.798 92.4C215.998 92.4 216.798 93.4 216.798 94.8C216.798 96.5 215.698 97.3 214.698 97.3C213.998 97.3 213.498 97 213.098 96.4V97.2H212.398ZM213.298 95.3C213.298 95.4 213.298 95.5 213.298 95.6C213.498 96.2 213.998 96.6 214.598 96.6C215.498 96.6 215.998 95.9 215.998 94.8C215.998 93.9 215.498 93.1 214.598 93.1C213.998 93.1 213.498 93.5 213.298 94.1C213.298 94.2 213.298 94.3 213.298 94.4V95.3Z" fill="white"/>
<path d="M218.898 91.2001C218.898 91.5001 218.698 91.7001 218.398 91.7001C218.098 91.7001 217.898 91.5001 217.898 91.2001C217.898 90.9001 218.098 90.7001 218.398 90.7001C218.698 90.7001 218.898 90.9001 218.898 91.2001ZM217.898 97.2001V92.5001H218.698V97.2001H217.898Z" fill="white"/>
<path d="M224.398 94.8C224.398 96.5 223.198 97.3 222.098 97.3C220.798 97.3 219.898 96.4 219.898 94.9C219.898 93.3 220.898 92.4 222.198 92.4C223.498 92.4 224.398 93.4 224.398 94.8ZM220.698 94.9C220.698 95.9 221.298 96.7 222.098 96.7C222.898 96.7 223.498 95.9 223.498 94.9C223.498 94.1 223.098 93.1 222.098 93.1C221.098 93.1 220.698 94 220.698 94.9Z" fill="white"/>
<path d="M229.5 90.4001V96.0001C229.5 96.4001 229.5 96.9001 229.5 97.2001H228.7V96.4001C228.4 96.9001 227.9 97.3 227.1 97.3C226 97.3 225.1 96.3001 225.1 94.9001C225.1 93.3001 226.1 92.4001 227.2 92.4001C227.9 92.4001 228.4 92.7001 228.6 93.1001V90.3H229.5V90.4001ZM228.7 94.4001C228.7 94.3001 228.7 94.1001 228.7 94.0001C228.6 93.5001 228.1 93.0001 227.5 93.0001C226.6 93.0001 226.1 93.8 226.1 94.8C226.1 95.7 226.6 96.5001 227.5 96.5001C228.1 96.5001 228.6 96.1001 228.7 95.5001C228.7 95.4001 228.7 95.3001 228.7 95.1001V94.4001Z" fill="white"/>
<path d="M231.898 91.2001C231.898 91.5001 231.698 91.7001 231.398 91.7001C231.098 91.7001 230.898 91.5001 230.898 91.2001C230.898 90.9001 231.098 90.7001 231.398 90.7001C231.698 90.7001 231.898 90.9001 231.898 91.2001ZM230.898 97.2001V92.5001H231.698V97.2001H230.898Z" fill="white"/>
<path d="M233.5 92.5L234.4 95.1C234.6 95.5 234.7 95.9 234.8 96.3C234.9 95.9 235 95.5 235.2 95.1L236.1 92.5H237L235.2 97.2H234.4L232.6 92.5H233.5Z" fill="white"/>
<path d="M238.199 95C238.199 96.1 238.999 96.6 239.799 96.6C240.399 96.6 240.799 96.5 241.099 96.4L241.199 97C240.899 97.1 240.399 97.3 239.599 97.3C238.199 97.3 237.299 96.4 237.299 94.9C237.299 93.5 238.099 92.4 239.499 92.4C240.999 92.4 241.399 93.7 241.399 94.6C241.399 94.8 241.399 94.9 241.399 95H238.199ZM240.699 94.4C240.699 93.9 240.499 93 239.499 93C238.599 93 238.299 93.8 238.199 94.4H240.699Z" fill="white"/>
<path d="M242.6 94C242.6 93.5 242.6 93 242.6 92.5H243.3V93.4C243.5 92.8 244 92.4 244.6 92.4C244.7 92.4 244.8 92.4 244.8 92.4V93.2C244.7 93.2 244.6 93.2 244.5 93.2C243.9 93.2 243.5 93.7 243.4 94.3C243.4 94.4 243.4 94.6 243.4 94.7V97.2H242.6V94Z" fill="white"/>
<path d="M245.599 96.4C245.899 96.6 246.299 96.7 246.699 96.7C247.299 96.7 247.599 96.4 247.599 96C247.599 95.6 247.399 95.4 246.699 95.1C245.899 94.8 245.499 94.3 245.499 93.8C245.499 93 246.099 92.4 247.099 92.4C247.599 92.4 247.999 92.5 248.199 92.7L247.999 93.3C247.799 93.2 247.499 93 246.999 93C246.499 93 246.199 93.3 246.199 93.6C246.199 94 246.499 94.2 247.099 94.4C247.899 94.7 248.299 95.1 248.299 95.8C248.299 96.6 247.699 97.2 246.599 97.2C246.099 97.2 245.599 97.1 245.299 96.9L245.599 96.4Z" fill="white"/>
<path d="M250.5 91.2001C250.5 91.5001 250.3 91.7001 250 91.7001C249.7 91.7001 249.5 91.5001 249.5 91.2001C249.5 90.9001 249.7 90.7001 250 90.7001C250.3 90.7001 250.5 90.9001 250.5 91.2001ZM249.5 97.2001V92.5001H250.3V97.2001H249.5Z" fill="white"/>
<path d="M252.799 91.2001V92.5001H253.999V93.1001H252.799V95.6001C252.799 96.2001 252.999 96.5001 253.399 96.5001C253.599 96.5001 253.799 96.5001 253.899 96.4001V97.0001C253.699 97.1001 253.499 97.1001 253.099 97.1001C252.699 97.1001 252.399 97.0001 252.199 96.7001C251.999 96.4001 251.899 96.0001 251.899 95.5001V93.0001H251.199V92.4001H251.899V91.3L252.799 91.2001Z" fill="white"/>
<path d="M255.398 92.5L256.398 95.3C256.498 95.6 256.598 96 256.698 96.3C256.798 96 256.898 95.7 256.998 95.3L257.898 92.6H258.798L257.498 95.9C256.898 97.5 256.498 98.3 255.898 98.8C255.498 99.2 255.098 99.3 254.898 99.3L254.698 98.6C254.898 98.5 255.198 98.4 255.398 98.2C255.598 98 255.898 97.7 256.098 97.3C256.098 97.2 256.198 97.1 256.198 97.1C256.198 97.1 256.198 97 256.098 96.9L254.398 92.6H255.398V92.5Z" fill="white"/>
<path d="M264.998 97C264.798 97.1 264.298 97.3 263.698 97.3C262.298 97.3 261.398 96.3 261.398 94.9C261.398 93.5 262.398 92.4 263.898 92.4C264.398 92.4 264.798 92.5 265.098 92.6L264.898 93.3C264.698 93.2 264.398 93.1 263.898 93.1C262.798 93.1 262.198 93.9 262.198 94.9C262.198 96 262.898 96.6 263.798 96.6C264.298 96.6 264.598 96.5 264.798 96.4L264.998 97Z" fill="white"/>
<path d="M270.199 94.8C270.199 96.5 268.999 97.3 267.899 97.3C266.599 97.3 265.699 96.4 265.699 94.9C265.699 93.3 266.699 92.4 267.999 92.4C269.299 92.4 270.199 93.4 270.199 94.8ZM266.499 94.9C266.499 95.9 267.099 96.7 267.899 96.7C268.699 96.7 269.299 95.9 269.299 94.9C269.299 94.1 268.899 93.1 267.899 93.1C266.899 93.1 266.499 94 266.499 94.9Z" fill="white"/>
<path d="M271.199 93.8C271.199 93.3 271.199 92.9 271.199 92.5H271.999V93.3C272.199 92.9 272.799 92.4 273.499 92.4C274.099 92.4 275.099 92.8 275.099 94.4V97.2H274.299V94.5C274.299 93.7 273.999 93.1 273.199 93.1C272.599 93.1 272.199 93.5 272.099 94C272.099 94.1 271.999 94.3 271.999 94.4V97.2H271.199V93.8Z" fill="white"/>
<path d="M276.499 96.4C276.799 96.6 277.199 96.7 277.599 96.7C278.199 96.7 278.499 96.4 278.499 96C278.499 95.6 278.299 95.4 277.599 95.1C276.799 94.8 276.399 94.3 276.399 93.8C276.399 93 276.999 92.4 277.999 92.4C278.499 92.4 278.899 92.5 279.099 92.7L278.899 93.3C278.699 93.2 278.399 93 277.899 93C277.399 93 277.099 93.3 277.099 93.6C277.099 94 277.399 94.2 277.999 94.4C278.799 94.7 279.199 95.1 279.199 95.8C279.199 96.6 278.599 97.2 277.499 97.2C276.999 97.2 276.499 97.1 276.199 96.9L276.499 96.4Z" fill="white"/>
<path d="M280.9 95C280.9 96.1 281.7 96.6 282.5 96.6C283.1 96.6 283.5 96.5 283.8 96.4L283.9 97C283.6 97.1 283.1 97.3 282.3 97.3C280.9 97.3 280 96.4 280 94.9C280 93.5 280.8 92.4 282.2 92.4C283.7 92.4 284.1 93.7 284.1 94.6C284.1 94.8 284.1 94.9 284.1 95H280.9ZM283.4 94.4C283.4 93.9 283.2 93 282.2 93C281.3 93 281 93.8 280.9 94.4H283.4Z" fill="white"/>
<path d="M285.299 94C285.299 93.5 285.299 93 285.299 92.5H285.999V93.4C286.199 92.8 286.699 92.4 287.299 92.4C287.399 92.4 287.499 92.4 287.499 92.4V93.2C287.399 93.2 287.299 93.2 287.199 93.2C286.599 93.2 286.199 93.7 286.099 94.3C286.099 94.4 286.099 94.6 286.099 94.7V97.2H285.299V94Z" fill="white"/>
<path d="M289 92.5L289.9 95.1C290.1 95.5 290.2 95.9 290.3 96.3C290.4 95.9 290.5 95.5 290.7 95.1L291.6 92.5H292.5L290.7 97.2H289.9L288.1 92.5H289Z" fill="white"/>
<path d="M295.9 97.2L295.8 96.6C295.5 97 295 97.3 294.4 97.3C293.5 97.3 293 96.6 293 96C293 94.9 294 94.3 295.8 94.3V94.2C295.8 93.8 295.7 93.1 294.7 93.1C294.3 93.1 293.8 93.2 293.5 93.4L293.3 92.8C293.7 92.5 294.2 92.4 294.8 92.4C296.2 92.4 296.6 93.4 296.6 94.3V96C296.6 96.4 296.6 96.8 296.7 97.1H295.9V97.2ZM295.7 94.8C294.8 94.8 293.7 94.9 293.7 95.9C293.7 96.4 294.1 96.7 294.5 96.7C295.1 96.7 295.5 96.3 295.6 95.9C295.6 95.8 295.6 95.7 295.6 95.6V94.8H295.7Z" fill="white"/>
<path d="M298.899 91.2001V92.5001H300.099V93.1001H298.899V95.6001C298.899 96.2001 299.099 96.5001 299.499 96.5001C299.699 96.5001 299.899 96.5001 299.999 96.4001V97.0001C299.799 97.1001 299.599 97.1001 299.199 97.1001C298.799 97.1001 298.499 97.0001 298.299 96.7001C298.099 96.4001 297.999 96.0001 297.999 95.5001V93.0001H297.299V92.4001H297.999V91.3L298.899 91.2001Z" fill="white"/>
<path d="M302 91.2001C302 91.5001 301.8 91.7001 301.5 91.7001C301.2 91.7001 301 91.5001 301 91.2001C301 90.9001 301.2 90.7001 301.5 90.7001C301.8 90.7001 302 90.9001 302 91.2001ZM301.1 97.2001V92.5001H301.9V97.2001H301.1Z" fill="white"/>
<path d="M307.6 94.8C307.6 96.5 306.4 97.3 305.3 97.3C304 97.3 303.1 96.4 303.1 94.9C303.1 93.3 304.1 92.4 305.4 92.4C306.7 92.4 307.6 93.4 307.6 94.8ZM303.9 94.9C303.9 95.9 304.5 96.7 305.3 96.7C306.1 96.7 306.7 95.9 306.7 94.9C306.7 94.1 306.3 93.1 305.3 93.1C304.3 93.1 303.9 94 303.9 94.9Z" fill="white"/>
<path d="M308.6 93.8C308.6 93.3 308.6 92.9 308.6 92.5H309.4V93.3C309.6 92.9 310.2 92.4 310.9 92.4C311.5 92.4 312.5 92.8 312.5 94.4V97.2H311.7V94.5C311.7 93.7 311.4 93.1 310.6 93.1C310 93.1 309.6 93.5 309.5 94C309.5 94.1 309.4 94.3 309.4 94.4V97.2H308.6V93.8Z" fill="white"/>
<path d="M126 42.8999V42.2C128 42.1 129.4 41.4 130.2 40.2C130.9 39 131.3 36.3999 131.3 32.5999V24.9999C131.3 24.6999 131.3 24.1999 131.3 23.5999C131.3 22.9999 131.3 22.5999 131.3 22.3999C131.3 21.0999 131.2 20.1999 130.9 19.4999C130.6 18.7999 130.2 18.1999 129.6 17.5999C129.1 17.0999 128.5 16.7999 127.8 16.4999C127.1 16.1999 126.3 16.0999 125.4 15.9999V15.2999C125.8 15.2999 126.4 15.2999 127.3 15.2999C128.1 15.2999 128.7 15.2999 129.1 15.2999C129.5 15.2999 130.1 15.2999 130.8 15.2999C131.5 15.2999 132.1 15.2999 132.4 15.2999L152.3 36.5999V27.3999C152.3 23.9999 152.2 21.5999 152 20.3999C151.8 19.1999 151.5 18.3 151 17.7C150.6 17.2 150 16.7999 149.3 16.4999C148.6 16.1999 147.6 15.9999 146.6 15.8999V15.2C147.3 15.2 148.1 15.1999 148.9 15.2999C149.7 15.2999 150.9 15.2999 152.4 15.2999C153.9 15.2999 155.1 15.2999 155.8 15.2999C156.5 15.2999 157.2 15.3 157.8 15.2V15.8999H157.5C156.1 15.8999 155.1 16.5999 154.5 17.9999C153.9 19.3999 153.7 22.0999 153.7 25.8999V34.3999C153.7 36.3999 153.7 38.1 153.7 39.7C153.7 41.2 153.8 42.5999 153.8 43.8999H153.6C152.8 42.9999 151.9 41.9999 151 40.8999C150.1 39.7999 149.5 39.1999 149.4 39.0999L132.6 21.2999V29.2C132.6 33.1 132.7 35.6999 132.8 36.9999C132.9 38.2999 133.2 39.2999 133.6 39.8999C133.9 40.4999 134.5 40.8999 135.2 41.2999C136 41.6999 137 42 138.4 42.2V42.8999H138.3C135.6 42.7999 133.5 42.7999 132.2 42.7999C131.4 42.7999 130.6 42.7999 129.8 42.7999C128.9 42.7999 127.6 42.8999 126 42.8999Z" fill="white"/>
<path d="M176.601 41.6999V42.2999C175.701 42.5999 174.901 42.7999 174.101 42.8999C173.401 42.9999 172.701 43.0999 172.301 43.0999C171.501 43.0999 170.901 42.8999 170.501 42.4999C170.101 42.0999 169.901 41.4999 169.801 40.6999C168.901 41.4999 168.001 42.1999 167.201 42.5999C166.301 42.9999 165.501 43.1999 164.801 43.1999C163.601 43.1999 162.601 42.7999 161.801 41.9999C161.001 41.1999 160.601 40.1999 160.601 38.8999C160.601 38.5999 160.601 38.1999 160.701 37.8999C160.701 37.5999 160.801 37.2999 160.901 36.9999L169.901 32.6999C169.901 32.5999 169.901 32.3999 169.901 32.1999C169.901 31.9999 169.901 31.7999 169.901 31.6999C169.901 29.7999 169.601 28.4999 169.001 27.6999C168.401 26.8999 167.401 26.4999 166.101 26.4999C165.101 26.4999 164.401 26.6999 164.001 26.9999C163.601 27.2999 163.301 27.7999 163.301 28.5999V28.6999V30.1999L161.601 30.2999C161.501 30.2999 161.501 30.2999 161.401 30.2999C161.301 30.2999 161.201 30.2999 161.201 30.2999C160.901 30.2999 160.701 30.2999 160.501 30.1999C160.401 30.0999 160.301 29.9999 160.301 29.7999C160.301 29.5999 160.501 29.1999 160.801 28.8999C161.101 28.4999 161.601 28.0999 162.201 27.4999C163.401 26.4999 164.501 25.6999 165.501 25.1999C166.501 24.6999 167.401 24.3999 168.101 24.3999C169.701 24.3999 170.901 24.9999 171.701 26.0999C172.501 27.1999 172.901 28.9999 172.901 31.2999V31.5999L172.801 37.0999V37.4999C172.801 38.9999 173.101 39.9999 173.601 40.5999C174.101 40.9999 175.101 41.3999 176.601 41.6999ZM169.801 33.5999L164.201 36.4999C164.101 36.8999 164.001 37.1999 164.001 37.3999C164.001 37.5999 163.901 37.6999 163.901 37.8999C163.901 38.9999 164.201 39.7999 164.701 40.3999C165.201 40.9999 165.901 41.2999 166.801 41.2999C167.301 41.2999 167.801 41.1999 168.301 40.8999C168.801 40.5999 169.301 40.1999 169.801 39.6999V33.5999Z" fill="white"/>
<path d="M179.901 39.0999L180.101 27.2H177.401L177.201 26.9999L183.101 21.2L183.401 21.2999L183.201 25.2H189.801V27.2999H183.301V34.5999C183.301 36.6999 183.401 38 183.501 38.7C183.601 39.4 183.801 39.8999 184.101 40.2999C184.401 40.6999 184.901 41 185.501 41.2C186.101 41.4 186.801 41.4999 187.701 41.4999C188.101 41.4999 188.401 41.4999 188.801 41.3999C189.201 41.3999 189.601 41.3 190.101 41.2L190.301 41.8999C189.101 42.2999 188.001 42.5999 186.901 42.8999C185.901 43.0999 184.901 43.2 184.001 43.2C182.601 43.2 181.501 42.8999 180.901 42.2999C180.301 41.6999 180.001 40.6999 180.001 39.3999V39.0999H179.901Z" fill="white"/>
<path d="M193.1 36.9999V30.3999V30.0999C193.1 27.1999 192.1 25.6999 190.1 25.6999H190V24.9999C191.1 24.8999 192.1 24.7999 193.2 24.6999C194.3 24.5999 195.3 24.4999 196.3 24.3999C196.3 25.1999 196.3 25.9999 196.2 26.6999C196.1 27.3999 196.2 28.1999 196.2 28.8999L196.4 35.7999C196.4 37.5999 196.8 38.9999 197.5 39.7999C198.2 40.5999 199.2 40.9999 200.7 40.9999C201.5 40.9999 202.3 40.7999 203 40.4999C203.8 40.1999 204.5 39.6999 205.2 39.0999L205.3 30.2999V29.9999C205.3 28.1999 205 27.0999 204.5 26.5999C204 26.0999 202.9 25.7999 201.3 25.7999H201.1V25.0999C201.6 24.9999 202.3 24.9999 203.2 24.8999C205.7 24.6999 207.5 24.4999 208.7 24.3999C208.7 25.4999 208.6 26.5999 208.6 27.4999C208.6 28.3999 208.6 29.0999 208.6 29.4999L208.5 37.5999V38.4999C208.5 39.5999 208.6 40.2999 208.8 40.5999C209 40.8999 209.4 41.0999 210 41.0999C210.2 41.0999 210.5 41.0999 210.8 40.9999C211.1 40.9999 211.5 40.8999 211.9 40.7999L212.1 41.4999C211.6 41.5999 210.9 41.7999 209.9 41.9999C207.8 42.4999 206.2 42.8999 205.2 43.0999V39.9999C203.8 40.9999 202.5 41.7999 201.3 42.1999C200.1 42.6999 198.9 42.8999 197.7 42.8999C196.2 42.8999 195.1 42.3999 194.4 41.3999C193.5 40.5999 193.2 39.0999 193.1 36.9999Z" fill="white"/>
<path d="M212.701 42.8999V42.2C213.701 42.1 214.401 41.7999 214.801 41.2999C215.101 40.7999 215.301 39.7999 215.301 38.0999V30.8999C215.301 29.8999 215.201 29.2 215.001 28.7C214.801 28.2 214.501 27.7999 214.001 27.4999L213.201 26.8999V26.4999L218.101 24.2L218.401 24.3999L218.301 29.0999C219.201 27.5999 220.101 26.3999 221.101 25.5999C222.101 24.7999 223.201 24.3999 224.201 24.3999C224.801 24.3999 225.301 24.5999 225.701 24.8999C226.101 25.1999 226.301 25.5999 226.301 26.0999C226.301 26.5999 226.101 26.9999 225.801 27.4999C225.501 27.8999 224.901 28.3999 224.201 28.7999C223.701 28.3999 223.201 27.9999 222.701 27.7999C222.201 27.5999 221.801 27.4999 221.501 27.4999C220.601 27.4999 219.801 27.9999 219.301 29.0999C218.701 30.0999 218.401 31.4999 218.401 33.2999V37.9999C218.401 39.6999 218.701 40.7999 219.201 41.2999C219.701 41.7999 220.901 42 222.701 42.2V42.8999C222.101 42.8999 221.401 42.8999 220.701 42.7999C220.001 42.7999 218.901 42.7999 217.501 42.7999C216.101 42.7999 215.101 42.7999 214.501 42.7999C213.901 42.7999 213.301 42.8999 212.701 42.8999Z" fill="white"/>
<path d="M242.3 38.0999L242.9 38.5999C241.9 40.0999 240.7 41.1999 239.4 41.9999C238.1 42.7999 236.7 43.0999 235.2 43.0999C232.8 43.0999 230.9 42.1999 229.3 40.4999C227.7 38.7999 226.9 36.5999 226.9 33.9999C226.9 31.2999 227.8 28.9999 229.5 27.0999C231.2 25.1999 233.3 24.2999 235.8 24.2999C237.8 24.2999 239.4 24.8999 240.6 25.9999C241.8 27.0999 242.5 28.5999 242.6 30.5999C240.4 30.4999 238.3 30.4999 236.3 30.3999C234.3 30.3999 232.4 30.2999 230.6 30.2999C230.5 30.6999 230.4 30.9999 230.4 31.3999C230.4 31.7999 230.3 32.0999 230.3 32.4999C230.3 34.7999 231 36.6999 232.3 38.2999C233.6 39.7999 235.3 40.5999 237.3 40.5999C238.3 40.5999 239.2 40.3999 240.1 39.9999C240.9 39.5999 241.6 38.8999 242.3 38.0999ZM238.4 29.2999C238.1 27.9999 237.7 26.9999 237.1 26.2999C236.5 25.5999 235.7 25.2 234.9 25.2C233.9 25.2 233 25.5999 232.2 26.3999C231.4 27.1999 230.9 28.1999 230.6 29.4999L238.4 29.2999Z" fill="white"/>
<path d="M153.501 67.1999L154.101 67.3999C153.801 68.7999 153.401 70.0999 153.101 71.2999C152.701 72.4999 152.301 73.5999 151.801 74.6999C150.501 75.2999 149.101 75.6999 147.701 75.9999C146.301 76.2999 144.801 76.4999 143.301 76.4999C141.201 76.4999 139.301 76.1999 137.401 75.5999C135.601 74.9999 133.901 74.1999 132.501 73.0999C130.801 71.7999 129.501 70.1999 128.601 68.2999C127.801 66.4999 127.301 64.3999 127.301 61.9999C127.301 59.7999 127.701 57.7999 128.601 55.8999C129.501 53.9999 130.801 52.3999 132.401 50.9999C133.801 49.7999 135.501 48.8999 137.401 48.2999C139.301 47.6999 141.301 47.3999 143.501 47.3999C145.101 47.3999 146.701 47.5999 148.201 47.8999C149.701 48.1999 151.201 48.6999 152.601 49.3999V56.1999H151.901C151.501 53.5999 150.501 51.6999 149.101 50.3999C147.601 49.0999 145.701 48.3999 143.301 48.3999C140.001 48.3999 137.201 49.5999 135.101 52.0999C133.001 54.5999 131.901 57.7999 131.901 61.6999C131.901 63.5999 132.201 65.4999 132.901 67.1999C133.601 68.8999 134.501 70.3999 135.801 71.6999C136.901 72.7999 138.101 73.6999 139.601 74.2999C141.001 74.8999 142.601 75.1999 144.201 75.1999C146.201 75.1999 148.001 74.5999 149.401 73.2999C151.001 72.1999 152.301 70.0999 153.501 67.1999Z" fill="white"/>
<path d="M155.4 66.7C155.4 64 156.4 61.7999 158.2 59.9999C160.1 58.1999 162.5 57.2999 165.3 57.2999C168.3 57.2999 170.8 58.1999 172.6 59.8999C174.4 61.5999 175.3 63.9 175.3 66.7C175.3 69.4 174.3 71.6999 172.5 73.3999C170.6 75.1999 168.2 76.0999 165.4 76.0999C162.4 76.0999 160 75.1999 158.1 73.4999C156.3 71.7999 155.4 69.6 155.4 66.7ZM165.4 58.2C163.5 58.2 162 58.9999 160.9 60.4999C159.8 61.9999 159.2 64.0999 159.2 66.7999C159.2 69.2999 159.8 71.3999 161 72.8999C162.2 74.4999 163.7 75.2999 165.5 75.2999C167.4 75.2999 168.9 74.4999 170 72.9999C171.1 71.4999 171.7 69.3999 171.7 66.7999C171.7 64.2999 171.1 62.1999 169.9 60.5999C168.7 58.9999 167.2 58.2 165.4 58.2Z" fill="white"/>
<path d="M177.9 59.8V59.5L183 57.1L183.3 57.3L183 60.4C184.5 59.3 185.9 58.5 187.1 58C188.3 57.5 189.4 57.2 190.5 57.2C192.2 57.2 193.4 57.7 194.2 58.7C195 59.7 195.4 61.4 195.4 63.6V71.3C195.4 72.9 195.6 73.9 195.9 74.3C196.2 74.6 197.1 74.9 198.3 75.1V75.8C197.8 75.8 197.2 75.8 196.6 75.7C196 75.7 195 75.7 193.7 75.7C192.4 75.7 191.5 75.7 190.8 75.7C190.2 75.7 189.6 75.7 189.1 75.8V75.1C190.4 75 191.3 74.7 191.7 74.3C192.1 73.9 192.3 72.8 192.3 71V65.5C192.3 63.2 192 61.6 191.3 60.7C190.6 59.8 189.5 59.3 187.9 59.3C187.1 59.3 186.4 59.4 185.6 59.7C184.8 60 184 60.4 183.2 61V71.4C183.2 72.9 183.4 73.8 183.8 74.2C184.2 74.6 185.1 74.8 186.6 75V75.7C186 75.7 185.4 75.7 184.8 75.6C184.1 75.6 183.2 75.6 181.8 75.6C180.5 75.6 179.5 75.6 178.9 75.6C178.3 75.6 177.7 75.6 177.1 75.7V75C178.3 74.9 179.2 74.6 179.6 74.2C180 73.8 180.2 72.9 180.2 71.5V63.4C180.2 62.5 180.1 61.9 179.9 61.4C179.7 60.9 179.3 60.5 178.8 60.2L177.9 59.8Z" fill="white"/>
<path d="M199.7 74.5999L199.4 70.0999L200.3 69.9999C200.6 71.5999 201.2 72.8999 202.1 73.7999C202.9 74.6999 203.9 75.2 205 75.2C206 75.2 206.8 74.9 207.4 74.2C208 73.6 208.3 72.7 208.3 71.7C208.3 71.1 208.1 70.4999 207.7 69.8999C207.3 69.3999 206.7 68.8999 206 68.4999L204.1 67.3999C202.7 66.5999 201.6 65.7999 201 64.9999C200.4 64.1999 200.1 63.2999 200.1 62.2999C200.1 60.7999 200.7 59.5999 201.8 58.5999C202.9 57.5999 204.3 57.2 206.1 57.2C206.8 57.2 207.6 57.2999 208.3 57.4999C209.1 57.6999 209.8 57.9999 210.6 58.4999L210.8 62.3999H209.9C209.4 60.8999 208.8 59.7999 208.1 59.0999C207.5 58.3999 206.7 58.0999 205.8 58.0999C205 58.0999 204.4 58.3999 203.8 58.9999C203.3 59.5999 203 60.2999 203 61.0999C203 61.6999 203.2 62.2999 203.6 62.7999C204 63.2999 204.7 63.8999 205.9 64.5999L208.2 65.9999C209.5 66.7999 210.3 67.4999 210.8 68.0999C211.3 68.6999 211.5 69.4999 211.5 70.3999C211.5 71.9999 210.9 73.2999 209.6 74.3999C208.3 75.3999 206.7 75.9999 204.8 75.9999C203.9 75.9999 203 75.8999 202.1 75.5999C201.3 75.4999 200.5 75.0999 199.7 74.5999Z" fill="white"/>
<path d="M229.6 71.0999L230.2 71.5999C229.2 73.0999 228 74.1999 226.7 74.9999C225.4 75.7999 224 76.0999 222.5 76.0999C220.1 76.0999 218.2 75.1999 216.5 73.4999C214.9 71.7999 214.1 69.5999 214.1 66.9999C214.1 64.2999 215 61.9999 216.7 60.0999C218.4 58.1999 220.5 57.2999 223 57.2999C225 57.2999 226.6 57.8999 227.8 58.9999C229 60.0999 229.7 61.5999 229.8 63.5999C227.6 63.4999 225.5 63.4999 223.5 63.3999C221.5 63.3999 219.6 63.2999 217.8 63.2999C217.7 63.6999 217.6 63.9999 217.6 64.3999C217.6 64.7999 217.5 65.0999 217.5 65.4999C217.5 67.7999 218.2 69.6999 219.5 71.2999C220.8 72.7999 222.5 73.5999 224.5 73.5999C225.5 73.5999 226.4 73.3999 227.3 72.9999C228.2 72.5999 229 71.9999 229.6 71.0999ZM225.7 62.2999C225.4 60.9999 225 59.9999 224.4 59.2999C223.8 58.5999 223 58.2 222.2 58.2C221.2 58.2 220.3 58.5999 219.5 59.3999C218.7 60.1999 218.2 61.1999 217.9 62.4999L225.7 62.2999Z" fill="white"/>
<path d="M231.801 75.8999V75.2C232.801 75.1 233.501 74.7999 233.901 74.2999C234.201 73.7999 234.401 72.7999 234.401 71.0999V63.8999C234.401 62.8999 234.301 62.2 234.101 61.7C233.901 61.2 233.601 60.7999 233.101 60.4999L232.301 59.8999V59.4999L237.201 57.2L237.501 57.3999L237.401 62.0999C238.301 60.5999 239.201 59.3999 240.201 58.5999C241.201 57.7999 242.301 57.3999 243.301 57.3999C243.901 57.3999 244.401 57.5999 244.801 57.8999C245.201 58.1999 245.401 58.5999 245.401 59.0999C245.401 59.5999 245.201 59.9999 244.901 60.4999C244.601 60.8999 244.001 61.3999 243.301 61.7999C242.801 61.3999 242.301 60.9999 241.801 60.7999C241.301 60.5999 240.901 60.4999 240.601 60.4999C239.701 60.4999 238.901 60.9999 238.401 62.0999C237.801 63.0999 237.501 64.4999 237.501 66.2999V70.9999C237.501 72.6999 237.801 73.7999 238.301 74.2999C238.801 74.7999 240.001 75 241.801 75.2V75.8999C241.201 75.8999 240.501 75.8999 239.801 75.7999C239.101 75.7999 238.001 75.7999 236.601 75.7999C235.201 75.7999 234.201 75.7999 233.601 75.7999C233.001 75.8999 232.401 75.8999 231.801 75.8999Z" fill="white"/>
<path d="M254.7 76.4999L248.9 62.0999C248.3 60.4999 247.7 59.4999 247.3 59.0999C246.8 58.6999 246.2 58.3999 245.4 58.3999V57.7C245.8 57.7 246.5 57.7 247.4 57.7C248.3 57.7 249 57.7 249.5 57.7C250 57.7 250.7 57.7 251.7 57.7C252.7 57.7 253.4 57.7 253.9 57.7V58.3999C253 58.4999 252.4 58.5999 252 58.7999C251.6 58.9999 251.5 59.3999 251.5 59.7999C251.5 59.9999 251.6 60.3999 251.8 60.9999C252 61.5999 252.2 62.1999 252.5 62.9999L256.3 72.3999L258.2 67.4999C259 65.3999 259.7 63.6999 260.1 62.3999C260.6 61.0999 260.8 60.2999 260.8 59.9999C260.8 59.4999 260.6 59.0999 260.2 58.8999C259.8 58.5999 259.1 58.4999 258.1 58.3999V57.7C258.5 57.7 259.2 57.7 260 57.7C260.8 57.7 261.5 57.7 261.9 57.7C262.3 57.7 262.9 57.7 263.7 57.7C264.5 57.7 265.1 57.7 265.5 57.7V58.3999C264.6 58.4999 263.9 58.7999 263.4 59.2999C262.8 59.7999 262.2 60.9999 261.3 62.8999L257.2 72.4999C256.8 73.4999 256.5 74.1999 256.2 74.7999C256 75.3999 255.7 75.9999 255.5 76.4999H254.7Z" fill="white"/>
<path d="M282.501 74.6999V75.2999C281.601 75.5999 280.801 75.7999 280.001 75.8999C279.301 75.9999 278.601 76.0999 278.201 76.0999C277.401 76.0999 276.801 75.8999 276.401 75.4999C276.001 75.0999 275.801 74.4999 275.701 73.6999C274.801 74.4999 273.901 75.1999 273.101 75.5999C272.201 75.9999 271.401 76.1999 270.701 76.1999C269.501 76.1999 268.501 75.7999 267.701 74.9999C266.901 74.1999 266.501 73.1999 266.501 71.8999C266.501 71.5999 266.501 71.1999 266.601 70.8999C266.701 70.5999 266.701 70.2999 266.801 69.9999L275.801 65.6999C275.801 65.5999 275.801 65.3999 275.801 65.1999C275.801 64.9999 275.801 64.7999 275.801 64.6999C275.801 62.7999 275.501 61.4999 274.901 60.6999C274.301 59.8999 273.301 59.4999 272.001 59.4999C271.001 59.4999 270.301 59.6999 269.901 59.9999C269.501 60.2999 269.201 60.7999 269.201 61.5999V61.6999V63.1999L267.501 63.2999C267.401 63.2999 267.401 63.2999 267.301 63.2999C267.201 63.2999 267.101 63.2999 267.101 63.2999C266.801 63.2999 266.601 63.2999 266.401 63.1999C266.301 63.0999 266.201 62.9999 266.201 62.7999C266.201 62.5999 266.401 62.1999 266.701 61.8999C267.001 61.4999 267.501 61.0999 268.101 60.4999C269.301 59.4999 270.401 58.6999 271.401 58.1999C272.401 57.6999 273.301 57.3999 274.001 57.3999C275.601 57.3999 276.801 57.9999 277.601 59.0999C278.401 60.1999 278.801 61.9999 278.801 64.2999V64.6999L278.701 70.1999V70.5999C278.701 72.0999 279.001 73.0999 279.501 73.6999C280.001 73.9999 281.001 74.3999 282.501 74.6999ZM275.701 66.6999L270.101 69.5999C270.001 69.9999 269.901 70.2999 269.901 70.4999C269.901 70.6999 269.801 70.7999 269.801 70.9999C269.801 72.0999 270.101 72.8999 270.601 73.4999C271.101 74.0999 271.801 74.3999 272.701 74.3999C273.201 74.3999 273.701 74.2999 274.201 73.9999C274.701 73.6999 275.201 73.2999 275.701 72.7999V66.6999Z" fill="white"/>
<path d="M285.8 72.2L286 60.2999H283.3L283 59.9999L288.9 54.2L289.2 54.2999L289 58.2H295.6V60.2999H289.1V67.5999C289.1 69.6999 289.2 71 289.3 71.7C289.4 72.4 289.6 72.8999 289.9 73.2999C290.2 73.6999 290.7 74 291.3 74.2C291.9 74.4 292.6 74.4999 293.5 74.4999C293.9 74.4999 294.2 74.4999 294.6 74.3999C295 74.3999 295.4 74.3 295.9 74.2L296.1 74.8999C294.9 75.2999 293.8 75.5999 292.7 75.8999C291.7 76.0999 290.7 76.2 289.8 76.2C288.4 76.2 287.3 75.8999 286.7 75.2999C286.1 74.6999 285.8 73.6999 285.8 72.3999V72.2Z" fill="white"/>
<path d="M296.4 75.8999V75.1999C297.8 75.0999 298.7 74.8999 299.1 74.3999C299.5 73.9999 299.7 72.6999 299.7 70.5999V63.9999C299.7 62.9999 299.6 62.1999 299.3 61.6999C299 61.1999 298.6 60.6999 297.9 60.1999L297.1 59.4999V59.1999L302.4 57.1999L302.8 57.3999C302.8 57.6999 302.8 58.1999 302.8 58.6999C302.8 59.8999 302.8 60.5999 302.8 60.9999V71.2999C302.8 72.8999 303 73.8999 303.4 74.2999C303.8 74.6999 304.7 74.9999 306 75.0999V75.7999C305.5 75.7999 304.9 75.7999 304.3 75.6999C303.7 75.5999 302.7 75.6999 301.4 75.6999C300.1 75.6999 299 75.6999 298.4 75.6999C297.7 75.8999 297 75.8999 296.4 75.8999ZM299.1 48.9999C299.1 48.3999 299.3 47.8999 299.7 47.4999C300.1 47.0999 300.6 46.8999 301.2 46.8999C301.8 46.8999 302.2 47.0999 302.6 47.4999C303 47.8999 303.2 48.3999 303.2 48.9999C303.2 49.5999 303 50.0999 302.6 50.3999C302.2 50.7999 301.7 50.9999 301.2 50.9999C300.6 50.9999 300.1 50.7999 299.7 50.3999C299.3 50.0999 299.1 49.6999 299.1 48.9999Z" fill="white"/>
<path d="M307.6 66.7C307.6 64 308.5 61.7999 310.4 59.9999C312.3 58.1999 314.7 57.2999 317.5 57.2999C320.5 57.2999 323 58.1999 324.8 59.8999C326.6 61.5999 327.5 63.9 327.5 66.7C327.5 69.4 326.6 71.6999 324.7 73.3999C322.8 75.1999 320.4 76.0999 317.6 76.0999C314.6 76.0999 312.2 75.1999 310.3 73.4999C308.5 71.7999 307.6 69.6 307.6 66.7ZM317.6 58.2C315.7 58.2 314.2 58.9999 313.1 60.4999C312 61.9999 311.4 64.0999 311.4 66.7999C311.4 69.2999 312 71.3999 313.1 72.8999C314.3 74.4999 315.8 75.2999 317.6 75.2999C319.5 75.2999 321 74.4999 322.1 72.9999C323.2 71.4999 323.8 69.3999 323.8 66.7999C323.8 64.2999 323.2 62.1999 322 60.5999C320.9 58.9999 319.4 58.2 317.6 58.2Z" fill="white"/>
<path d="M330 59.8V59.5L335.1 57.1L335.4 57.3L335.1 60.4C336.6 59.3 338 58.5 339.2 58C340.4 57.5 341.5 57.2 342.6 57.2C344.3 57.2 345.5 57.7 346.3 58.7C347.1 59.7 347.5 61.4 347.5 63.6V71.3C347.5 72.9 347.7 73.9 348 74.3C348.4 74.6 349.2 74.9 350.4 75.1V75.8C349.9 75.8 349.3 75.8 348.7 75.7C348.1 75.7 347.1 75.7 345.8 75.7C344.5 75.7 343.6 75.7 342.9 75.7C342.3 75.7 341.7 75.7 341.1 75.8V75.1C342.4 75 343.3 74.7 343.7 74.3C344.1 73.9 344.3 72.8 344.3 71V65.5C344.3 63.2 344 61.6 343.3 60.7C342.6 59.8 341.5 59.3 339.9 59.3C339.1 59.3 338.4 59.4 337.6 59.7C336.8 60 336 60.4 335.2 61V71.4C335.2 72.9 335.4 73.8 335.8 74.2C336.2 74.6 337.1 74.8 338.6 75V75.7C338 75.7 337.4 75.7 336.8 75.6C336.1 75.6 335.2 75.6 333.8 75.6C332.5 75.6 331.5 75.6 330.9 75.6C330.3 75.6 329.7 75.6 329.1 75.7V75C330.3 74.9 331.2 74.6 331.6 74.2C332 73.8 332.2 72.9 332.2 71.5V63.4C332.2 62.5 332.1 61.9 331.9 61.4C331.7 60.9 331.3 60.5 330.8 60.2L330 59.8Z" fill="white"/>
<path d="M61.6004 73.7999C46.8004 73.7999 34.0004 64.9999 28.2004 52.2999L27.9004 51.4999L28.2004 50.7C34.0004 38 46.7004 29.2 61.6004 29.2C76.4004 29.2 89.2004 38 95.0004 50.7L95.3004 51.4999L95.0004 52.2999C89.2004 64.9999 76.4004 73.7999 61.6004 73.7999Z" fill="#FFD300"/>
<path d="M61.6004 70.2C74.7004 70.2 86.0004 62.6 91.3004 51.6C85.9004 40.6 74.6004 33 61.6004 33C48.5004 33 37.2004 40.6 31.9004 51.6C37.2004 62.6 48.5004 70.2 61.6004 70.2Z" fill="white"/>
<path d="M80.0996 51.6C80.0996 61.8 71.7996 70.1 61.5996 70.1C51.3996 70.1 43.0996 61.8 43.0996 51.6C43.0996 41.4 51.3996 33.1 61.5996 33.1C71.7996 33.1 80.0996 41.4 80.0996 51.6Z" fill="#0557A3"/>
<path d="M87.2 17.1001C90.7 17.1001 94 18.1001 97 20.0001C100.5 22.3001 102.6 27.2001 104.9 32.4001C107.1 37.4001 109.5 42.8001 113.5 47.0001C112.1 47.6001 110.7 47.9001 109.4 47.9001C105.8 47.9001 102.1 45.5001 98.3 40.6001C90.8 30.9001 81.2 24.8001 71 23.0001C75.4 19.9001 81.2 17.1001 87.2 17.1001ZM87.2 13.3C76.3 13.3 66.2 21.1001 61.5 26.4001C62.6 26.3001 63.8 26.2001 64.9 26.2001C75.3 26.2001 86.5 31.5 95.2 42.8C100 49 104.6 51.6001 109.2 51.6001C112.8 51.6001 116.3 50.0001 119.9 47.4001C108.5 40.9001 108.2 23.0001 98.9 16.9001C95.1 14.3001 91.1 13.3 87.2 13.3Z" fill="white"/>
<path d="M23.6989 51.6C19.4989 43 15.0989 23.1 29.5989 13.4C38.8989 7.19999 55.4989 13.9 65.8989 6C68.1989 15.9 65.4989 23.4 51.9989 27C36.6989 31 26.8989 40.7 23.6989 51.6Z" fill="white"/>
<path d="M13.7996 55.4C17.3996 55.4 21.0996 57.8 24.8996 62.7C32.2996 72.3 41.9996 78.5 52.0996 80.2C47.6996 83.3 41.9996 86.1 35.9996 86.1C32.4996 86.1 29.1996 85.1 26.1996 83.2C22.6996 80.9 20.5996 76 18.2996 70.8C16.0996 65.8 13.6996 60.4 9.69961 56.2C11.1996 55.7 12.4996 55.4 13.7996 55.4ZM13.7996 51.6C10.1996 51.6 6.69961 53.2 3.09961 55.8C14.4996 62.3 14.7996 80.2 24.0996 86.3C27.9996 88.8 31.9996 89.9 35.8996 89.9C46.7996 89.9 56.8996 82.1 61.5996 76.8C60.4996 76.9 59.2996 77 58.1996 77C47.7996 77 36.5996 71.7 27.8996 60.4C23.0996 54.2 18.3996 51.6 13.7996 51.6Z" fill="white"/>
<path d="M99.399 51.6C103.599 60.2 107.999 80.1 93.499 89.8C84.199 96 67.599 89.3 57.199 97.2C54.899 87.3 57.599 79.8 71.099 76.2C86.499 72.2 96.199 62.5 99.399 51.6Z" fill="white"/>
</svg>
