<?xml version="1.0" encoding="utf-8"?>
<!-- Generator: Adobe Illustrator 19.0.0, SVG Export Plug-In . SVG Version: 6.00 Build 0)  -->
<svg version="1.1" id="Layer_1" xmlns="http://www.w3.org/2000/svg" xmlns:xlink="http://www.w3.org/1999/xlink" x="0px" y="0px"
	 viewBox="-100.9 352 347.3 91.2" style="enable-background:new -100.9 352 347.3 91.2;" xml:space="preserve">
<style type="text/css">
	.st0{fill:#FFFFFF;}
	.st1{fill:#FFD300;}
	.st2{fill:#0557A3;}
</style>
<path class="st0" d="M22,388.9v-0.7c2-0.1,3.4-0.8,4.2-2c0.7-1.2,1.1-3.8,1.1-7.6V371c0-0.3,0-0.8,0-1.4c0-0.6,0-1,0-1.2
	c0-1.3-0.1-2.2-0.4-2.9c-0.3-0.7-0.7-1.3-1.3-1.9c-0.5-0.5-1.1-0.8-1.8-1.1c-0.7-0.3-1.5-0.4-2.4-0.5v-0.7c0.4,0,1,0,1.9,0
	c0.8,0,1.4,0,1.8,0c0.4,0,1,0,1.7,0s1.3,0,1.6,0l19.9,21.3v-9.2c0-3.4-0.1-5.8-0.3-7s-0.5-2.1-1-2.7c-0.4-0.5-1-0.9-1.7-1.2
	c-0.7-0.3-1.7-0.5-2.7-0.6v-0.7c0.7,0,1.5,0,2.3,0.1c0.8,0,2,0,3.5,0s2.7,0,3.4,0s1.4,0,2-0.1v0.7h-0.3c-1.4,0-2.4,0.7-3,2.1
	s-0.8,4.1-0.8,7.9v8.5c0,2,0,3.7,0,5.3c0,1.5,0.1,2.9,0.1,4.2h-0.2c-0.8-0.9-1.7-1.9-2.6-3s-1.5-1.7-1.6-1.8l-16.8-17.8v7.9
	c0,3.9,0.1,6.5,0.2,7.8c0.1,1.3,0.4,2.3,0.8,2.9c0.3,0.6,0.9,1,1.6,1.4c0.8,0.4,1.8,0.7,3.2,0.9v0.7h-0.1c-2.7-0.1-4.8-0.1-6.1-0.1
	c-0.8,0-1.6,0-2.4,0C24.9,388.8,23.6,388.9,22,388.9z"/>
<path class="st0" d="M72.6,387.7v0.6c-0.9,0.3-1.7,0.5-2.5,0.6c-0.7,0.1-1.4,0.2-1.8,0.2c-0.8,0-1.4-0.2-1.8-0.6
	c-0.4-0.4-0.6-1-0.7-1.8c-0.9,0.8-1.8,1.5-2.6,1.9c-0.9,0.4-1.7,0.6-2.4,0.6c-1.2,0-2.2-0.4-3-1.2c-0.8-0.8-1.2-1.8-1.2-3.1
	c0-0.3,0-0.7,0.1-1c0-0.3,0.1-0.6,0.2-0.9l9-4.3c0-0.1,0-0.3,0-0.5c0-0.2,0-0.4,0-0.5c0-1.9-0.3-3.2-0.9-4c-0.6-0.8-1.6-1.2-2.9-1.2
	c-1,0-1.7,0.2-2.1,0.5c-0.4,0.3-0.7,0.8-0.7,1.6v0.1v1.5l-1.7,0.1c-0.1,0-0.1,0-0.2,0s-0.2,0-0.2,0c-0.3,0-0.5,0-0.7-0.1
	c-0.1-0.1-0.2-0.2-0.2-0.4c0-0.2,0.2-0.6,0.5-0.9c0.3-0.4,0.8-0.8,1.4-1.4c1.2-1,2.3-1.8,3.3-2.3s1.9-0.8,2.6-0.8
	c1.6,0,2.8,0.6,3.6,1.7c0.8,1.1,1.2,2.9,1.2,5.2v0.3l-0.1,5.5v0.4c0,1.5,0.3,2.5,0.8,3.1C70.1,387,71.1,387.4,72.6,387.7z
	 M65.8,379.6l-5.6,2.9c-0.1,0.4-0.2,0.7-0.2,0.9s-0.1,0.3-0.1,0.5c0,1.1,0.3,1.9,0.8,2.5s1.2,0.9,2.1,0.9c0.5,0,1-0.1,1.5-0.4
	s1-0.7,1.5-1.2V379.6z"/>
<path class="st0" d="M75.9,385.1l0.2-11.9h-2.7l-0.2-0.2l5.9-5.8l0.3,0.1l-0.2,3.9h6.6v2.1h-6.5v7.3c0,2.1,0.1,3.4,0.2,4.1
	c0.1,0.7,0.3,1.2,0.6,1.6s0.8,0.7,1.4,0.9c0.6,0.2,1.3,0.3,2.2,0.3c0.4,0,0.7,0,1.1-0.1c0.4,0,0.8-0.1,1.3-0.2l0.2,0.7
	c-1.2,0.4-2.3,0.7-3.4,1c-1,0.2-2,0.3-2.9,0.3c-1.4,0-2.5-0.3-3.1-0.9s-0.9-1.6-0.9-2.9v-0.3H75.9z"/>
<path class="st0" d="M89.1,383v-6.6v-0.3c0-2.9-1-4.4-3-4.4H86V371c1.1-0.1,2.1-0.2,3.2-0.3c1.1-0.1,2.1-0.2,3.1-0.3
	c0,0.8,0,1.6-0.1,2.3c-0.1,0.7,0,1.5,0,2.2l0.2,6.9c0,1.8,0.4,3.2,1.1,4c0.7,0.8,1.7,1.2,3.2,1.2c0.8,0,1.6-0.2,2.3-0.5
	c0.8-0.3,1.5-0.8,2.2-1.4l0.1-8.8V376c0-1.8-0.3-2.9-0.8-3.4s-1.6-0.8-3.2-0.8h-0.2v-0.7c0.5-0.1,1.2-0.1,2.1-0.2
	c2.5-0.2,4.3-0.4,5.5-0.5c0,1.1-0.1,2.2-0.1,3.1s0,1.6,0,2l-0.1,8.1v0.9c0,1.1,0.1,1.8,0.3,2.1c0.2,0.3,0.6,0.5,1.2,0.5
	c0.2,0,0.5,0,0.8-0.1c0.3,0,0.7-0.1,1.1-0.2l0.2,0.7c-0.5,0.1-1.2,0.3-2.2,0.5c-2.1,0.5-3.7,0.9-4.7,1.1V386c-1.4,1-2.7,1.8-3.9,2.2
	c-1.2,0.5-2.4,0.7-3.6,0.7c-1.5,0-2.6-0.5-3.3-1.5C89.5,386.6,89.2,385.1,89.1,383z"/>
<path class="st0" d="M108.7,388.9v-0.7c1-0.1,1.7-0.4,2.1-0.9c0.3-0.5,0.5-1.5,0.5-3.2v-7.2c0-1-0.1-1.7-0.3-2.2
	c-0.2-0.5-0.5-0.9-1-1.2l-0.8-0.6v-0.4l4.9-2.3l0.3,0.2l-0.1,4.7c0.9-1.5,1.8-2.7,2.8-3.5c1-0.8,2.1-1.2,3.1-1.2
	c0.6,0,1.1,0.2,1.5,0.5c0.4,0.3,0.6,0.7,0.6,1.2s-0.2,0.9-0.5,1.4c-0.3,0.4-0.9,0.9-1.6,1.3c-0.5-0.4-1-0.8-1.5-1
	c-0.5-0.2-0.9-0.3-1.2-0.3c-0.9,0-1.7,0.5-2.2,1.6c-0.6,1-0.9,2.4-0.9,4.2v4.7c0,1.7,0.3,2.8,0.8,3.3s1.7,0.7,3.5,0.9v0.7
	c-0.6,0-1.3,0-2-0.1c-0.7,0-1.8,0-3.2,0c-1.4,0-2.4,0-3,0C109.9,388.8,109.3,388.9,108.7,388.9z"/>
<path class="st0" d="M138.3,384.1l0.6,0.5c-1,1.5-2.2,2.6-3.5,3.4c-1.3,0.8-2.7,1.1-4.2,1.1c-2.4,0-4.3-0.9-5.9-2.6
	c-1.6-1.7-2.4-3.9-2.4-6.5c0-2.7,0.9-5,2.6-6.9c1.7-1.9,3.8-2.8,6.3-2.8c2,0,3.6,0.6,4.8,1.7c1.2,1.1,1.9,2.6,2,4.6
	c-2.2-0.1-4.3-0.1-6.3-0.2c-2,0-3.9-0.1-5.7-0.1c-0.1,0.4-0.2,0.7-0.2,1.1s-0.1,0.7-0.1,1.1c0,2.3,0.7,4.2,2,5.8
	c1.3,1.5,3,2.3,5,2.3c1,0,1.9-0.2,2.8-0.6C136.9,385.6,137.6,384.9,138.3,384.1z M134.4,375.3c-0.3-1.3-0.7-2.3-1.3-3
	c-0.6-0.7-1.4-1.1-2.2-1.1c-1,0-1.9,0.4-2.7,1.2s-1.3,1.8-1.6,3.1L134.4,375.3z"/>
<path class="st0" d="M49.5,413.2l0.6,0.2c-0.3,1.4-0.7,2.7-1,3.9c-0.4,1.2-0.8,2.3-1.3,3.4c-1.3,0.6-2.7,1-4.1,1.3
	c-1.4,0.3-2.9,0.5-4.4,0.5c-2.1,0-4-0.3-5.9-0.9c-1.8-0.6-3.5-1.4-4.9-2.5c-1.7-1.3-3-2.9-3.9-4.8c-0.8-1.8-1.3-3.9-1.3-6.3
	c0-2.2,0.4-4.2,1.3-6.1c0.9-1.9,2.2-3.5,3.8-4.9c1.4-1.2,3.1-2.1,5-2.7s3.9-0.9,6.1-0.9c1.6,0,3.2,0.2,4.7,0.5s3,0.8,4.4,1.5v6.8
	h-0.7c-0.4-2.6-1.4-4.5-2.8-5.8c-1.5-1.3-3.4-2-5.8-2c-3.3,0-6.1,1.2-8.2,3.7c-2.1,2.5-3.2,5.7-3.2,9.6c0,1.9,0.3,3.8,1,5.5
	c0.7,1.7,1.6,3.2,2.9,4.5c1.1,1.1,2.3,2,3.8,2.6c1.4,0.6,3,0.9,4.6,0.9c2,0,3.8-0.6,5.2-1.9C47,418.2,48.3,416.1,49.5,413.2z"/>
<path class="st0" d="M51.4,412.7c0-2.7,1-4.9,2.8-6.7c1.9-1.8,4.3-2.7,7.1-2.7c3,0,5.5,0.9,7.3,2.6c1.8,1.7,2.7,4,2.7,6.8
	c0,2.7-1,5-2.8,6.7c-1.9,1.8-4.3,2.7-7.1,2.7c-3,0-5.4-0.9-7.3-2.6C52.3,417.8,51.4,415.6,51.4,412.7z M61.4,404.2
	c-1.9,0-3.4,0.8-4.5,2.3c-1.1,1.5-1.7,3.6-1.7,6.3c0,2.5,0.6,4.6,1.8,6.1c1.2,1.6,2.7,2.4,4.5,2.4c1.9,0,3.4-0.8,4.5-2.3
	s1.7-3.6,1.7-6.2c0-2.5-0.6-4.6-1.8-6.2C64.7,405,63.2,404.2,61.4,404.2z"/>
<path class="st0" d="M73.9,405.8v-0.3l5.1-2.4l0.3,0.2l-0.3,3.1c1.5-1.1,2.9-1.9,4.1-2.4c1.2-0.5,2.3-0.8,3.4-0.8
	c1.7,0,2.9,0.5,3.7,1.5s1.2,2.7,1.2,4.9v7.7c0,1.6,0.2,2.6,0.5,3c0.3,0.3,1.2,0.6,2.4,0.8v0.7c-0.5,0-1.1,0-1.7-0.1
	c-0.6,0-1.6,0-2.9,0s-2.2,0-2.9,0c-0.6,0-1.2,0-1.7,0.1v-0.7c1.3-0.1,2.2-0.4,2.6-0.8c0.4-0.4,0.6-1.5,0.6-3.3v-5.5
	c0-2.3-0.3-3.9-1-4.8c-0.7-0.9-1.8-1.4-3.4-1.4c-0.8,0-1.5,0.1-2.3,0.4c-0.8,0.3-1.6,0.7-2.4,1.3v10.4c0,1.5,0.2,2.4,0.6,2.8
	c0.4,0.4,1.3,0.6,2.8,0.8v0.7c-0.6,0-1.2,0-1.8-0.1c-0.7,0-1.6,0-3,0c-1.3,0-2.3,0-2.9,0c-0.6,0-1.2,0-1.8,0.1V421
	c1.2-0.1,2.1-0.4,2.5-0.8c0.4-0.4,0.6-1.3,0.6-2.7v-8.1c0-0.9-0.1-1.5-0.3-2c-0.2-0.5-0.6-0.9-1.1-1.2L73.9,405.8z"/>
<path class="st0" d="M95.7,420.6l-0.3-4.5l0.9-0.1c0.3,1.6,0.9,2.9,1.8,3.8c0.8,0.9,1.8,1.4,2.9,1.4c1,0,1.8-0.3,2.4-1
	c0.6-0.6,0.9-1.5,0.9-2.5c0-0.6-0.2-1.2-0.6-1.8c-0.4-0.5-1-1-1.7-1.4l-1.9-1.1c-1.4-0.8-2.5-1.6-3.1-2.4c-0.6-0.8-0.9-1.7-0.9-2.7
	c0-1.5,0.6-2.7,1.7-3.7c1.1-1,2.5-1.4,4.3-1.4c0.7,0,1.5,0.1,2.2,0.3c0.8,0.2,1.5,0.5,2.3,1l0.2,3.9h-0.9c-0.5-1.5-1.1-2.6-1.8-3.3
	c-0.6-0.7-1.4-1-2.3-1c-0.8,0-1.4,0.3-2,0.9c-0.5,0.6-0.8,1.3-0.8,2.1c0,0.6,0.2,1.2,0.6,1.7c0.4,0.5,1.1,1.1,2.3,1.8l2.3,1.4
	c1.3,0.8,2.1,1.5,2.6,2.1c0.5,0.6,0.7,1.4,0.7,2.3c0,1.6-0.6,2.9-1.9,4c-1.3,1-2.9,1.6-4.8,1.6c-0.9,0-1.8-0.1-2.7-0.4
	C97.3,421.5,96.5,421.1,95.7,420.6z"/>
<path class="st0" d="M125.6,417.1l0.6,0.5c-1,1.5-2.2,2.6-3.5,3.4c-1.3,0.8-2.7,1.1-4.2,1.1c-2.4,0-4.3-0.9-6-2.6
	c-1.6-1.7-2.4-3.9-2.4-6.5c0-2.7,0.9-5,2.6-6.9c1.7-1.9,3.8-2.8,6.3-2.8c2,0,3.6,0.6,4.8,1.7s1.9,2.6,2,4.6
	c-2.2-0.1-4.3-0.1-6.3-0.2c-2,0-3.9-0.1-5.7-0.1c-0.1,0.4-0.2,0.7-0.2,1.1s-0.1,0.7-0.1,1.1c0,2.3,0.7,4.2,2,5.8
	c1.3,1.5,3,2.3,5,2.3c1,0,1.9-0.2,2.8-0.6C124.2,418.6,125,418,125.6,417.1z M121.7,408.3c-0.3-1.3-0.7-2.3-1.3-3
	c-0.6-0.7-1.4-1.1-2.2-1.1c-1,0-1.9,0.4-2.7,1.2s-1.3,1.8-1.6,3.1L121.7,408.3z"/>
<path class="st0" d="M127.8,421.9v-0.7c1-0.1,1.7-0.4,2.1-0.9c0.3-0.5,0.5-1.5,0.5-3.2v-7.2c0-1-0.1-1.7-0.3-2.2s-0.5-0.9-1-1.2
	l-0.8-0.6v-0.4l4.9-2.3l0.3,0.2l-0.1,4.7c0.9-1.5,1.8-2.7,2.8-3.5c1-0.8,2.1-1.2,3.1-1.2c0.6,0,1.1,0.2,1.5,0.5
	c0.4,0.3,0.6,0.7,0.6,1.2s-0.2,0.9-0.5,1.4c-0.3,0.4-0.9,0.9-1.6,1.3c-0.5-0.4-1-0.8-1.5-1c-0.5-0.2-0.9-0.3-1.2-0.3
	c-0.9,0-1.7,0.5-2.2,1.6c-0.6,1-0.9,2.4-0.9,4.2v4.7c0,1.7,0.3,2.8,0.8,3.3s1.7,0.7,3.5,0.9v0.7c-0.6,0-1.3,0-2-0.1
	c-0.7,0-1.8,0-3.2,0c-1.4,0-2.4,0-3,0C129,421.9,128.4,421.9,127.8,421.9z"/>
<path class="st0" d="M150.7,422.5l-5.8-14.4c-0.6-1.6-1.2-2.6-1.6-3c-0.5-0.4-1.1-0.7-1.9-0.7v-0.7c0.4,0,1.1,0,2,0
	c0.9,0,1.6,0,2.1,0s1.2,0,2.2,0s1.7,0,2.2,0v0.7c-0.9,0.1-1.5,0.2-1.9,0.4c-0.4,0.2-0.5,0.6-0.5,1c0,0.2,0.1,0.6,0.3,1.2
	s0.4,1.2,0.7,2l3.8,9.4l1.9-4.9c0.8-2.1,1.5-3.8,1.9-5.1c0.5-1.3,0.7-2.1,0.7-2.4c0-0.5-0.2-0.9-0.6-1.1c-0.4-0.3-1.1-0.4-2.1-0.5
	v-0.7c0.4,0,1.1,0,1.9,0s1.5,0,1.9,0s1,0,1.8,0c0.8,0,1.4,0,1.8,0v0.7c-0.9,0.1-1.6,0.4-2.1,0.9c-0.6,0.5-1.2,1.7-2.1,3.6l-4.1,9.6
	c-0.4,1-0.7,1.7-1,2.3c-0.2,0.6-0.5,1.2-0.7,1.7H150.7z"/>
<path class="st0" d="M178.5,420.7v0.6c-0.9,0.3-1.7,0.5-2.5,0.6c-0.7,0.1-1.4,0.2-1.8,0.2c-0.8,0-1.4-0.2-1.8-0.6s-0.6-1-0.7-1.8
	c-0.9,0.8-1.8,1.5-2.6,1.9c-0.9,0.4-1.7,0.6-2.4,0.6c-1.2,0-2.2-0.4-3-1.2c-0.8-0.8-1.2-1.8-1.2-3.1c0-0.3,0-0.7,0.1-1
	c0.1-0.3,0.1-0.6,0.2-0.9l9-4.3c0-0.1,0-0.3,0-0.5c0-0.2,0-0.4,0-0.5c0-1.9-0.3-3.2-0.9-4c-0.6-0.8-1.6-1.2-2.9-1.2
	c-1,0-1.7,0.2-2.1,0.5c-0.4,0.3-0.7,0.8-0.7,1.6v0.1v1.5l-1.7,0.1c-0.1,0-0.1,0-0.2,0s-0.2,0-0.2,0c-0.3,0-0.5,0-0.7-0.1
	c-0.1-0.1-0.2-0.2-0.2-0.4c0-0.2,0.2-0.6,0.5-0.9c0.3-0.4,0.8-0.8,1.4-1.4c1.2-1,2.3-1.8,3.3-2.3s1.9-0.8,2.6-0.8
	c1.6,0,2.8,0.6,3.6,1.7c0.8,1.1,1.2,2.9,1.2,5.2v0.4l-0.1,5.5v0.4c0,1.5,0.3,2.5,0.8,3.1C176,420,177,420.4,178.5,420.7z
	 M171.7,412.7l-5.6,2.9c-0.1,0.4-0.2,0.7-0.2,0.9c0,0.2-0.1,0.3-0.1,0.5c0,1.1,0.3,1.9,0.8,2.5s1.2,0.9,2.1,0.9c0.5,0,1-0.1,1.5-0.4
	c0.5-0.3,1-0.7,1.5-1.2V412.7z"/>
<path class="st0" d="M181.8,418.2l0.2-11.9h-2.7L179,406l5.9-5.8l0.3,0.1l-0.2,3.9h6.6v2.1h-6.5v7.3c0,2.1,0.1,3.4,0.2,4.1
	c0.1,0.7,0.3,1.2,0.6,1.6c0.3,0.4,0.8,0.7,1.4,0.9c0.6,0.2,1.3,0.3,2.2,0.3c0.4,0,0.7,0,1.1-0.1c0.4,0,0.8-0.1,1.3-0.2l0.2,0.7
	c-1.2,0.4-2.3,0.7-3.4,1c-1,0.2-2,0.3-2.9,0.3c-1.4,0-2.5-0.3-3.1-0.9c-0.6-0.6-0.9-1.6-0.9-2.9V418.2z"/>
<path class="st0" d="M192.4,421.9v-0.7c1.4-0.1,2.3-0.3,2.7-0.8c0.4-0.4,0.6-1.7,0.6-3.8V410c0-1-0.1-1.8-0.4-2.3
	c-0.3-0.5-0.7-1-1.4-1.5l-0.8-0.7v-0.3l5.3-2l0.4,0.2c0,0.3,0,0.8,0,1.3c0,1.2,0,1.9,0,2.3v10.3c0,1.6,0.2,2.6,0.6,3
	s1.3,0.7,2.6,0.8v0.7c-0.5,0-1.1,0-1.7-0.1c-0.6-0.1-1.6,0-2.9,0c-1.3,0-2.4,0-3,0C193.7,421.9,193,421.9,192.4,421.9z M195.1,395
	c0-0.6,0.2-1.1,0.6-1.5c0.4-0.4,0.9-0.6,1.5-0.6c0.6,0,1,0.2,1.4,0.6s0.6,0.9,0.6,1.5s-0.2,1.1-0.6,1.4c-0.4,0.4-0.9,0.6-1.4,0.6
	c-0.6,0-1.1-0.2-1.5-0.6C195.3,396.1,195.1,395.7,195.1,395z"/>
<path class="st0" d="M203.6,412.7c0-2.7,0.9-4.9,2.8-6.7c1.9-1.8,4.3-2.7,7.1-2.7c3,0,5.5,0.9,7.3,2.6c1.8,1.7,2.7,4,2.7,6.8
	c0,2.7-0.9,5-2.8,6.7c-1.9,1.8-4.3,2.7-7.1,2.7c-3,0-5.4-0.9-7.3-2.6C204.5,417.8,203.6,415.6,203.6,412.7z M213.6,404.2
	c-1.9,0-3.4,0.8-4.5,2.3s-1.7,3.6-1.7,6.3c0,2.5,0.6,4.6,1.7,6.1c1.2,1.6,2.7,2.4,4.5,2.4c1.9,0,3.4-0.8,4.5-2.3s1.7-3.6,1.7-6.2
	c0-2.5-0.6-4.6-1.8-6.2C216.9,405,215.4,404.2,213.6,404.2z"/>
<path class="st0" d="M226,405.8v-0.3l5.1-2.4l0.3,0.2l-0.3,3.1c1.5-1.1,2.9-1.9,4.1-2.4c1.2-0.5,2.3-0.8,3.4-0.8
	c1.7,0,2.9,0.5,3.7,1.5c0.8,1,1.2,2.7,1.2,4.9v7.7c0,1.6,0.2,2.6,0.5,3c0.4,0.3,1.2,0.6,2.4,0.8v0.7c-0.5,0-1.1,0-1.7-0.1
	c-0.6,0-1.6,0-2.9,0c-1.3,0-2.2,0-2.9,0c-0.6,0-1.2,0-1.8,0.1v-0.7c1.3-0.1,2.2-0.4,2.6-0.8c0.4-0.4,0.6-1.5,0.6-3.3v-5.5
	c0-2.3-0.3-3.9-1-4.8c-0.7-0.9-1.8-1.4-3.4-1.4c-0.8,0-1.5,0.1-2.3,0.4c-0.8,0.3-1.6,0.7-2.4,1.3v10.4c0,1.5,0.2,2.4,0.6,2.8
	c0.4,0.4,1.3,0.6,2.8,0.8v0.7c-0.6,0-1.2,0-1.8-0.1c-0.7,0-1.6,0-3,0c-1.3,0-2.3,0-2.9,0s-1.2,0-1.8,0.1V421
	c1.2-0.1,2.1-0.4,2.5-0.8c0.4-0.4,0.6-1.3,0.6-2.7v-8.1c0-0.9-0.1-1.5-0.3-2c-0.2-0.5-0.6-0.9-1.1-1.2L226,405.8z"/>
<path class="st1" d="M-42.4,419.8c-14.8,0-27.6-8.8-33.4-21.5l-0.3-0.8l0.3-0.8c5.8-12.7,18.5-21.5,33.4-21.5
	c14.8,0,27.6,8.8,33.4,21.5l0.3,0.8l-0.3,0.8C-14.8,411-27.6,419.8-42.4,419.8z"/>
<path class="st0" d="M-42.4,416.2c13.1,0,24.4-7.6,29.7-18.6c-5.4-11-16.7-18.6-29.7-18.6c-13.1,0-24.4,7.6-29.7,18.6
	C-66.8,408.6-55.5,416.2-42.4,416.2z"/>
<path class="st2" d="M-23.9,397.6c0,10.2-8.3,18.5-18.5,18.5s-18.5-8.3-18.5-18.5c0-10.2,8.3-18.5,18.5-18.5S-23.9,387.4-23.9,397.6
	z"/>
<path class="st0" d="M-16.8,363.1c3.5,0,6.8,1,9.8,2.9c3.5,2.3,5.6,7.2,7.9,12.4c2.2,5,4.6,10.4,8.6,14.6c-1.4,0.6-2.8,0.9-4.1,0.9
	c-3.6,0-7.3-2.4-11.1-7.3c-7.5-9.7-17.1-15.8-27.3-17.6C-28.6,365.9-22.8,363.1-16.8,363.1z M-16.8,359.3c-10.9,0-21,7.8-25.7,13.1
	c1.1-0.1,2.3-0.2,3.4-0.2c10.4,0,21.6,5.3,30.3,16.6c4.8,6.2,9.4,8.8,14,8.8c3.6,0,7.1-1.6,10.7-4.2c-11.4-6.5-11.7-24.4-21-30.5
	C-8.9,360.3-12.9,359.3-16.8,359.3z"/>
<path class="st0" d="M-80.3,397.6c-4.2-8.6-8.6-28.5,5.9-38.2c9.3-6.2,25.9,0.5,36.3-7.4c2.3,9.9-0.4,17.4-13.9,21
	C-67.3,377-77.1,386.7-80.3,397.6z"/>
<path class="st0" d="M-90.2,401.4c3.6,0,7.3,2.4,11.1,7.3c7.4,9.6,17.1,15.8,27.2,17.5c-4.4,3.1-10.1,5.9-16.1,5.9
	c-3.5,0-6.8-1-9.8-2.9c-3.5-2.3-5.6-7.2-7.9-12.4c-2.2-5-4.6-10.4-8.6-14.6C-92.8,401.7-91.5,401.4-90.2,401.4z M-90.2,397.6
	c-3.6,0-7.1,1.6-10.7,4.2c11.4,6.5,11.7,24.4,21,30.5c3.9,2.5,7.9,3.6,11.8,3.6c10.9,0,21-7.8,25.7-13.1c-1.1,0.1-2.3,0.2-3.4,0.2
	c-10.4,0-21.6-5.3-30.3-16.6C-80.9,400.2-85.6,397.6-90.2,397.6z"/>
<path class="st0" d="M-4.6,397.6c4.2,8.6,8.6,28.5-5.9,38.2c-9.3,6.2-25.9-0.5-36.3,7.4c-2.3-9.9,0.4-17.4,13.9-21
	C-17.5,418.2-7.8,408.5-4.6,397.6z"/>
</svg>
