<?xml version="1.0" encoding="utf-8"?>
<!-- Generator: Adobe Illustrator 28.0.0, SVG Export Plug-In . SVG Version: 6.00 Build 0)  -->
<svg version="1.1" id="Layer_1" xmlns="http://www.w3.org/2000/svg" xmlns:xlink="http://www.w3.org/1999/xlink" x="0px" y="0px"
	 viewBox="0 0 366.1 104" style="enable-background:new 0 0 366.1 104;" xml:space="preserve">
<style type="text/css">
	.st0{fill:#FFFFFF;}
</style>
<g>
	<g>
		<g>
			<g>
				<path class="st0" d="M51.4,73.4c-0.6,0.7-0.7,0.6-1.2,1.2c-1.3,1.3-3.4,7.5-4.5,10.3c0,0.1-0.1,0.2-0.1,0.3
					c-1.1,2.6,0.7,4.3,1.7,6.9c0.9,2.6-2.3,2.2-2.3,2.2h-5.9c-2.5-0.8-2.4-3.1-1.9-5.2c0.1-0.5,0.3-1.2,0.6-2.1
					c1.3-4.6,4.2-13.7,4-14.9c-0.1-1-1.3-7.3-2-11.4c1.8,2,4.5,3.4,6.5,5.1c1.2,1,2.8,4.9,3.5,5.6C50.9,72.6,51.2,72.9,51.4,73.4z"
					/>
			</g>
			<path class="st0" d="M82.2,72.7c2,1,2.9,3.1,1.5,5.1c-0.3,0.4-0.2,10.1,1.3,11.3c1.5,1.2,3.5,6.1-0.6,5.3h-7.8
				c-2.2-0.7-1.4-3.9-1.2-5.8c0.5-4.4,0.5-19.4,0.5-20.2C75.9,69.2,81.3,72.2,82.2,72.7z"/>
			<g>
				<path class="st0" d="M99.8,77.9c0,2.5,0,2.5-1.1,3.4c-1.1,0.9-2.5,5.2-3.1,7.8c-0.6,2.6-1.5,3.1-2.9,2.9
					c-0.8-0.1-1.5-1.3-1.9-1.9c-0.9-1.2-1.7-2.4-2.5-3.7c-0.5-0.8-2.2-2.7-2-3.6c0.3-1.3,2.6-1.5,3.5-2.2c1-0.7,1.4-1.7,2-2.7
					c0.9-1.6-6-5.1-6-5.1s-8.9-4.3-10.6-7.5c-1.4-2.7-1.2-5.3-1.2-5.3L63,62c0,0,0.3,1.8,1.1,3.5c0.7,1.7-2,5.5-2.8,6.3
					c-0.8,0.8-1.1,6.2-1.1,6.2s-0.2,1.3-0.5,3c-0.4,3-0.7,7.4,0.6,8.3c1.1,0.8,2.2,1.6,2.4,2.8c0.2,0.9-0.4,2.2-0.4,2.2l-5.7,0
					c-3.1-0.1-6,0.4-6-4.2c0-1,0.5-3.8,0.9-6.9c0.5-2.9,0.9-6.1,1-8c0-1.1-0.2-2-0.6-2.9c-0.8-1.8-2.7-2.8-3.4-5.4
					c-0.8-2.6-5.8-5.1-8.8-8.3c-0.4-0.5-0.7-1-1-1.7c0,0,0,0,0,0c-1.7-4.2-1.1-7.7-1.1-7.7s-1.5-0.4-3,1.9
					c-9.2,14.6-21.1,19-21.1,19S29,57.5,34.4,45.7c2.3-5,4.6-14.2,8.5-18.4c7.8-8.5,18-3.1,21.2-2.6c2,0.3,4.2,0.2,5.6,0.1
					c0.8-0.1,1.3-0.1,1.4-0.1c0.2-0.1,0.5-0.1,0.7-0.2c0,0.4,0.1,0.8,0.1,1.1c0.3,2.1,2,6.2,3.5,7.3c1.6,1.1,1.7,0.9,1.9,1.7
					c0.2,0.7,0.8,1.2,1.6,2.4c0.8,1.2,3.7,5.5,4.4,6.2c0.7,0.8,3.4,3.2,5.9,5.1c1.5,1.1,2.2,0.9,2.6,0.5c-0.1,0.3-0.3,0.6-0.4,0.9
					c-1.1,3.8,0.4,10.7,0.5,13.7c0.1,2,1.4,4.1,2.9,5.8c1.1,1.3,2.3,2.5,3,3.3C99.6,74.3,99.8,75.4,99.8,77.9z"/>
			</g>
			<g>
				<path class="st0" d="M94.8,41.3c-0.1,0.6-0.4,1.1-1,1.7v-0.2C94.2,42.5,94.5,42,94.8,41.3z"/>
			</g>
			<g>
				<g>
					<path class="st0" d="M136.2,46.3c-0.7-1.4-1.7,0.1-2.5,0.2c-0.6,0.1-1.3-0.7-2-0.3c-0.6,0.4-0.2,1.3-0.1,1.8
						c0,0.2,0.4,0.4,0.4,0.7c0.1,1.2-0.2,2.3-0.8,3.4c-0.1,0.3-0.3,0.5-0.5,0.8c-1.4,1.5-4.2,1.7-5.5,0c-0.4-0.5-1-1.5-1-2.4
						c0-0.2,0-0.5,0.2-0.7c0-0.1,0.1-0.2,0.2-0.2c1.2-1.2-0.5-4.9-0.5-5.3s-0.4-1.5-0.4-1.5c-1.4-3.4-7.9-17.4-13.9-20.6
						c-2.7-0.7-6.5-3.5-6.5-3.5s-0.1-0.1-0.3-0.4c-0.5-0.5-1.3-1.5-1.8-1.9c-0.8-0.7-3.8-3.1-5-3.9c-5.8-4-16.7-4.2-21.8,1.4
						c-2.5,2.8-1.9,6.8-1.4,10.4c0,0.2,0.1,0.4,0.1,0.6c0.5,2.2,2,5.7,3.4,6.7c1.6,1.1,1.7,1,1.9,1.7c0.2,0.7,0.8,1.2,1.6,2.4
						s3.7,5.5,4.4,6.2s3.4,3.2,5.9,5.1c0.2,0.1,0.3,0.2,0.5,0.3c1,0.6,1.6,0.6,2,0.3c2.4-1,2.8-3.4,2.8-3.4c0.9-1.1,2.9-0.4,4.9,0.4
						c0.9,0.7,1.9,1.4,2.8,1.5c1.3,0.1,5.2,1,6.1,1.2c3.5,0.8,5.1,1.2,7.8-1.2c0.6,0.6,1.5,1.8,1.3,2.7c-0.3,1.4-0.2,3.1,0.7,4.4
						c0.6,0.8,0.9,1.8,1.6,2.5c1.4,1.5,4.1,2.8,6.1,3c2.3,0.3,5.4-1.3,6.8-3.2c1.2-1.6,1.8-4.4,2.3-6.3
						C136.2,47.7,136.4,46.6,136.2,46.3z M94.8,41.3c0.3-1.2,0-2.4,0.2-3.9c0.3-1.6,2.4-4,3.6-1.6C95.7,34.4,95.6,38.8,94.8,41.3z
						 M107.3,34.3c-0.4,0-0.8-0.2-1.1-0.4c-0.1-0.1-1-0.9-0.9-1c0.6-0.6,1.7-1,2.6-0.8c0.5,0.1,0.8,0.5,1.1,0.8
						c0.3,0.4,0.4,0.8,0.5,1.3C109.3,33.8,107.8,34.4,107.3,34.3z"/>
				</g>
			</g>
		</g>
		<g>
			<path class="st0" d="M258.3,18.3c0,0-7.7-3.2-15.4-0.1c0,12.7,0,21.9,0,21.9c2.5-11.6,15.4-13.5,15.4-13.5V18.3z"/>
			<path class="st0" d="M258.4,93.4c-8.4,2.8-15.6,0-15.6,0V47c0.6-15.1,15.6-15.6,15.6-15.6C258.5,31.4,258.4,93.4,258.4,93.4z"/>
			<path class="st0" d="M164.2,36.3v57c-8.5,2.6-15.8,0.2-15.8,0.2s0-24.9,0-45.2c0.3-0.8,0.6-1.6,1-2.3
				C153.3,38.1,161.7,36.6,164.2,36.3z"/>
			<path class="st0" d="M226.4,93.4c-6.8,2.6-17.1,0.1-17.1,0.1l-13-30.5h-13.6c-4.8,0-5.2-3.6-5.2-7.2c0-4.5,0.5-7.1,5.5-7.1h13.8
				c2.7,0,4.2-3.2,4.3-3.5c2.4-5.2,1-14.4-5.9-14.4h-31v0c-1.8,0.2-9.6,1.5-13.9,9.8c-0.1,0.2-0.3,0.5-0.4,0.8
				c-0.6,1.3-1.2,2.7-1.5,4.4V24c0-7.2,7-7,7-7h42.4c19.6,0,24.7,28.8,12.8,38.8L226.4,93.4z"/>
			<path class="st0" d="M342.1,58.6c0.1-0.1,0.3-0.1,0.4-0.2c0.4-0.2,0.8-0.5,1.2-0.7c0.1,0,0.2-0.1,0.2-0.2
				c0.8-0.6,1.7-1.3,2.5-2.1c0.1-0.1,0.1-0.1,0.2-0.2c0.1-0.1,0.2-0.2,0.3-0.3c0.1-0.1,0.1-0.2,0.2-0.2c0.7-0.7,1.3-1.6,1.8-2.5
				c0.1-0.2,0.3-0.5,0.5-0.8c0.8-1.4,1.4-3,1.9-4.8c0.7,2.9,1.1,6,1.1,9.2c0,21.4-17.3,38.7-38.7,38.7c-21.4,0-38.7-17.4-38.7-38.7
				c0-21.4,17.3-38.7,38.7-38.7c17.8,0,32.8,12,37.3,28.3c-0.2,0.5-0.5,1-0.8,1.5c-3.8,6.6-10.8,8.3-14.1,8.6
				c-0.2-12.2-10.1-22.1-22.4-22.1c-12.4,0-22.4,10-22.4,22.4c0,12.4,10,22.4,22.4,22.4c10.7,0,19.6-7.5,21.8-17.4
				c0.4-0.1,0.7-0.1,1.1-0.2c0.2,0,0.4-0.1,0.6-0.1c0.1,0,0.3-0.1,0.4-0.1c0.3-0.1,0.5-0.1,0.8-0.2c0.1,0,0.3-0.1,0.4-0.1
				c0.2-0.1,0.5-0.2,0.8-0.3c0.1-0.1,0.3-0.1,0.4-0.2c0.1,0,0.2-0.1,0.3-0.1L342.1,58.6z"/>
		</g>
	</g>
</g>
</svg>
