<svg xmlns="http://www.w3.org/2000/svg" xmlns:xlink="http://www.w3.org/1999/xlink" width="19.567" height="22.815" viewBox="0 0 19.567 22.815">
  <defs>
    <clipPath id="clip-path">
      <rect id="Rectangle_2562" data-name="Rectangle 2562" width="19.567" height="22.815" fill="none"/>
    </clipPath>
  </defs>
  <g id="Group_14266" data-name="Group 14266" transform="translate(0 0)">
    <g id="Group_14265" data-name="Group 14265" transform="translate(0 0)" clip-path="url(#clip-path)">
      <path id="Path_27848" data-name="Path 27848" d="M19.556,13.318a1.887,1.887,0,0,1-.192.58,3.1,3.1,0,0,1-3.06,1.722,13.145,13.145,0,0,0-2.734-.435,4.122,4.122,0,0,0-2.365,1.45,6.372,6.372,0,0,1,4.421-.15c.43.118.952.435.9.944-.094.858-1.477,1.456-2.224,1.418-.3-.015-.56-.133-.852-.122a3.168,3.168,0,0,0-1.14.307c-1.023.489-1.311,1.983-1.45,3-.01.07-.073.41-.124.782H5.711a14.34,14.34,0,0,0-.335-1.929,3.123,3.123,0,0,0-1.814-2.032c-.607-.284-1.246-.5-1.852-.793A2.259,2.259,0,0,1,.242,15.93a.97.97,0,0,1,1.5-.93,5.525,5.525,0,0,1,.721.531,5.192,5.192,0,0,0,.721.519.525.525,0,0,0,.488-.012.513.513,0,0,0,.089-.494,2.92,2.92,0,0,0-.723-.814c-.581-.4-1.224-.715-1.82-1.1A2.5,2.5,0,0,1,0,11.475,1.737,1.737,0,0,1,1.333,9.751a.914.914,0,0,1,1.239.638,4.841,4.841,0,0,1,.221,1.038,1.289,1.289,0,0,0,.766,1.095c2.134.956,2.715,3.034,2.813,5.134.3-1.438.7-3.183-.185-4.449-.631-.906-1.384-1.567-1.2-2.778.39-2.6-2.091-2.335-2.418-4.076-.389-2.086,3.407-.531,3.31.84.189-2.683-2.541-2.8-3.9-4.616A1.653,1.653,0,0,1,2.334.267C3-.215,3.86-.041,3.986.75,4.279,2.576,5.7,2.435,6.765,3.535c1.227,1.26,1.1,3.085.936,4.652,1.362-1.137.994-2.458.471-3.831-.366-.957-.765-2.4.664-2.572,1.4-.168,1.229,1.239,1.429,2.16.145.677.593,1.218.728,1.906a3.8,3.8,0,0,1-.38,2.391c-.181.358-.4.687-.583,1.042a3.807,3.807,0,0,0-.485,3c.184.55.587,1.079.464,1.646a10.849,10.849,0,0,0,2.274-1.7c.644-.847.654-2,1.327-2.829.182-.228.406-.417.593-.642.7-.836.5-1.729.642-2.721a1.023,1.023,0,0,1,.946-.951,1.057,1.057,0,0,1,.947,1.021,6.52,6.52,0,0,1-1.7,4.438c.242-.292.8-.427,1.1-.651a15.321,15.321,0,0,0,1.2-1.048,2.21,2.21,0,0,1,.516-.367.921.921,0,0,1,.953.092,1.126,1.126,0,0,1,.155,1.438,2.97,2.97,0,0,1-.754.816,19.734,19.734,0,0,0-1.974,1.295c-.549.5-.888,1.2-1.511,1.629.267-.185.626-.025.922-.027.627-.007,1-.431,1.526-.7a5.52,5.52,0,0,1,1.6-.56c.583-.1.855.257.783.855" transform="translate(0 -0.001)" fill="#031b2f"/>
    </g>
  </g>
</svg>
