<svg xmlns="http://www.w3.org/2000/svg" width="48.06" height="60.974" viewBox="0 0 48.06 60.974">
  <g id="Group_14290" data-name="Group 14290" transform="translate(-1863.995 -1738.019)">
    <path id="Path_27443_3_" d="M364.675,515.346v.878l-.94,1.191v1.63l.564,1.818,3.6,2.978h.439l.407.533v1.034l1.6,4.639,1.693,2.131.627.313v.376l.157.282h.376l1.316,1.567h.125l.219-.313h2.445l.345-.282h.69l.313.5v.909l-1,.721v.627l2.037,1.1,2.884,1.316.878,1,2.915,1.316,2.351,3.542-.846,1.348h-.439l-.69-.815-.627-1.254-1.536-.564-1.567-1.1h-.846l-1.818,1.912-.5,1.755-.094.47.721.251,1.379,1.285.219.376v2.633l-1.975.6-.376.407v2.288l-1.1.533-1.128,1.975-1,.157-.784-.282V555.5l.407-.878.533-.564V553.9l-.407-.219v-.533l.282-.251,1.5-.69v-.752l-1.787-5.8-.313-.846h-.47l-.376.376H374.8l-.5-.784-.6-.219-.784-.533v-.439l.188-.219v-.658l-.313-.658-.533-.251H371.1l-.282-.219-.188-.878-.407-.219-.627.219-1.442-2.7-2.79-.313-.5-.251-3.636-4.514h-.784l-.157-.063.157-.345-1.41-1.912h-1.254l-.251-.157.157-.909-2.1-3.166-.752-5.266-4.451-3.291h-1.5l-1.066.627-1.5,1.975h-2.413l.376-1.316-.627-.909-1.222-.345-.627-.815v-1.63l.251-1.034v-.313l-.345-.345v-1.285l.627-.439.815-.251-.251-.815-.219-1.693v-1.881l.188-.188h.125l.47,1.066,1.63.313h1.787l1.348-1.16v-.6l.658-.5h.815v1.63l.627.408.752.909h.345l1.5-2.57h.345l.69.5,1.787.627h.313l.157-.219v-1.473l.125-.094h.878l.125-.094.407-1.034.627.251,5.109-.564.533-.188.627.219v1.222l2.1,1.41,3.323.909-1.128.972v1.1l.533.282v1.379l1.442,1.222-.188.564H369.5l.533-.376v-.752l-.188-.251-.752.125h-1.128l-4.075,1.661v1.034l.784.627Z" transform="translate(1522.771 1234.524)" fill="#47bee2" stroke="#fff" stroke-miterlimit="10" stroke-width="0.953"/>
    <path id="Path_27474_3_" d="M406.191,665.731h1.222L408.7,667.2h3.04l1.975-.564h1.348l.5-.6h1.755l-.063,1.034-2.57,3.6v.376l.533.94.407,1.222-.407,1.379-.282.407h-1.379l-1.1-.376-2.1-1.975L408.636,672l-2.319-1.975-2.758-1.16-.658-.752v-.6l.94-1.818h.313l.721.564h.846l.47-.533Z" transform="translate(1480.754 1123.507)" fill="#47bee2" stroke="#fff" stroke-miterlimit="10" stroke-width="0.953"/>
    <path id="Path_27500_3_" d="M350.237,606.149l2.6-1.849h.407l1.254,1.034.376,2.006v1.285l-.47,1.63-.345,3.291-.313,1.912-.627,1.191h-.376l-.752-.439h-.627l-1.066,1.316h-.909l-.219-.564-.721-.846-.251-2.539.407-1.222.533-.658-.282-3.855-.6-.282v-1.5l.282-.627h.282l.5.721Z" transform="translate(1518.309 1165.662)" fill="#47bee2" stroke="#fff" stroke-miterlimit="10" stroke-width="0.953"/>
    <circle id="Ellipse_2881-6_2_" cx="3.928" cy="3.928" r="3.928" transform="translate(1889.689 1788.005)" fill="#102441" opacity="0.339"/>
    <g id="Group_14067_2_" transform="translate(1887.616 1775.591)">
      <path id="Icon_material-location-on-13-6_2_" d="M183.718,201h0a6.013,6.013,0,0,0-6.018,5.987h0a10.124,10.124,0,0,0,1.285,4.357,36.268,36.268,0,0,0,4.7,6.77,36.474,36.474,0,0,0,4.67-6.676,10.452,10.452,0,0,0,1.348-4.451A6.047,6.047,0,0,0,183.718,201Zm-.031,3.855a2.147,2.147,0,1,1-2.131,2.163h0a2.181,2.181,0,0,1,2.131-2.163Z" transform="translate(-177.7 -201)" fill="#102441"/>
    </g>
  </g>
</svg>
