<svg xmlns="http://www.w3.org/2000/svg" xmlns:xlink="http://www.w3.org/1999/xlink" width="31.073" height="18.701" viewBox="0 0 31.073 18.701">
  <defs>
    <clipPath id="clip-path">
      <rect id="Rectangle_2574" data-name="Rectangle 2574" width="31.073" height="18.701" fill="none"/>
    </clipPath>
  </defs>
  <g id="Group_14294" data-name="Group 14294" transform="translate(0 0)">
    <g id="Group_14282" data-name="Group 14282" transform="translate(0 0)" clip-path="url(#clip-path)">
      <path id="Path_27851" data-name="Path 27851" d="M29.785,13.3l-.368-.223c-.284-.18-.606-.4-.956-.606-.44.027-.883.044-1.328.044a19.854,19.854,0,0,1-2.626-.177,19.553,19.553,0,0,1-2.639-.539,19.308,19.308,0,0,1-2.861-1.046,22.735,22.735,0,0,0,2.48.525,22.615,22.615,0,0,0,3.305.268c.079,0,.154,0,.233,0a23.088,23.088,0,0,0,3.311-.239v0c.053-.21-.412-.722-.814-1.123-.2-.2-.382-.37-.479-.469-.364-.343-.8-.753-1.312-1.19a19.681,19.681,0,0,0-5.115-3.227,9.96,9.96,0,0,0-1.354-.452c-.3-.078-.6-.143-.9-.2a22.7,22.7,0,0,0-6.84-.009.58.58,0,0,0-.079.012c-.407.053-.741.106-.981.144a.914.914,0,0,0-.766.621.825.825,0,0,0-.034.25.084.084,0,0,0-.027-.022,6.724,6.724,0,0,1-.849-.8,6.009,6.009,0,0,1-.387-.5c-.789-1.158-.8-2.166-1.474-2.828A5.16,5.16,0,0,0,5.318.4,5.119,5.119,0,0,0,3.542.014,3.4,3.4,0,0,0,0,2.461l.035.218.037.15C.84,5.16,4.416,5.709,4.892,5.784c.686.285,1.235,3.013,4.4,4.756l.153.083a.918.918,0,0,0-.12.461v.026c0,.048.009.094.015.143a8.373,8.373,0,0,0,8.188,7.45c-.1-.152-.205-.309-.3-.465a11.539,11.539,0,0,1-1.644-5.159,11.992,11.992,0,0,0,2.075.686q.327.073.7.145a20.335,20.335,0,0,0,6.089.387c.139-.017.274-.038.406-.058h0a1.424,1.424,0,0,0,.117.172,2.547,2.547,0,0,0,.758.7c.09.054.178.1.266.147h0c.033.019.067.037.1.055a12.353,12.353,0,0,0,3.1,1.1h0c.07.018.14.028.208.042a1.7,1.7,0,0,0,.172.008,1.386,1.386,0,0,0,1.085-.52,2.482,2.482,0,0,0,.169-.254c.62-1.2-.094-1.8-1.055-2.4M4.074,3.179a.77.77,0,1,1,.77-.769.769.769,0,0,1-.77.769" transform="translate(0 0.001)" fill="#041b32"/>
    </g>
  </g>
</svg>
