<svg xmlns="http://www.w3.org/2000/svg" width="55.807" height="74.645" viewBox="0 0 55.807 74.645">
  <g id="Group_14279" data-name="Group 14279" transform="translate(12572.247 -5248.566)">
    <path id="Path_27433_3_" d="M457.8,370.44l3.468-2.491,4.2-.879,4.347-1.27,2.393.733.977,1.221v.733h-.733l-.879-.83h-.342l.2.83.879.83,1.758,1.026,3.224-1.221,2.54.879,4.152.928H485.3l3.956-.44,4.494-.635,3.419,2.54.391,1.27,2.393,7.718.293,2.931-.83,1.612-2,1.27-1.123,1.27,2.3,2.1v4.054l.782,2.54,1.71,2.98,1.172,3.126v.586l-.684,1.123-3.419,2.784-3.761,6.741v1.368l.44.342v.44H491.9l-2.54-2.442h-2.931l-1.758,1.417h-.537l-1.319-.83H481.25l-1.417,1.368h-.781l-.977-.293-2.589-2.393-1.661.635-1.758-.342-.977-.83-.977-.488-1.954-3.37h-1.417l-.586-.537v-1.807l-.537-.391-3.419-.879h-.635l-.342,1.221-.537.586h-.83l-2.1-2.052.537-1.075v-.635l-1.514-.537-.684-1.172H453.6l-.879-1.368-.684-.635-1.172.635-.684.83-.684-.488,1.123-5.08-.879-.635-1.075-2.051v-8.694l-1.27-1.123v-.928l.83-1.807.586-3.615-.781-2.345,1.416,1.026.586-.391-.049-.782-1.417-.488,1.368-1.123,3.028-.977,4.836-1.319Z" transform="translate(-13019.17 4906.087)" fill="#47bee2" stroke="#fff" stroke-miterlimit="10" stroke-width="0.953"/>
    <circle id="Ellipse_2881-4_2_" cx="5.002" cy="5.002" r="5.002" transform="translate(-12551.335 5270.233)" fill="#102441" opacity="0.339"/>
    <g id="Group_14064_2_" transform="translate(-12555.687 5248.566)">
      <path id="Icon_material-location-on-13-4_2_" d="M202.678,127.8h0a9.37,9.37,0,0,0-9.378,9.329h0a15.777,15.777,0,0,0,2,6.789,56.519,56.519,0,0,0,7.327,10.551,56.84,56.84,0,0,0,7.278-10.4,16.288,16.288,0,0,0,2.1-6.936A9.392,9.392,0,0,0,202.678,127.8Zm-.049,6.008a3.346,3.346,0,1,1-3.321,3.37h0a3.367,3.367,0,0,1,3.321-3.37Z" transform="translate(-193.3 -127.8)" fill="#102441"/>
    </g>
  </g>
</svg>
