<svg xmlns="http://www.w3.org/2000/svg" width="51.328" height="77.316" viewBox="0 0 51.328 77.316">
  <g id="Group_14276" data-name="Group 14276" transform="translate(138.446 -153.161)">
    <path id="Path_27434_3_" d="M395.8,323l-.607.364-.364,2.388-.486.364-.243.688.729.243v.729l-.809.324-2.186-.4-1.052-.4.081-.567-.2-3.562-.729-.809-.931-.2.526-1.619v-3.8l2.833-5.3,4.169-.648,2.1-2.266,2.347-.809v3.076l-1.7,2.914v1.417l-.971.324v.324l1.457,1.133h1.74v1.5l-1.983,1.174-.2-.809h-.486l-.283.728v1.417l-1.457.283-.324,1.174-.809-.445-.243.162.364.364Z" transform="translate(-503.008 -153.87)" fill="#47bee2" stroke="#fff" stroke-miterlimit="10" stroke-width="0.953"/>
    <path id="Path_27431_3_" d="M363.778,366.9l.243.2h.243l.364-1.336h.243l.567.4.486-1.619.486-.607h1.538l-.688-.4v-1.052l.648-.121v-.162l-.607-.162v-1.093l-.567-.243,1.174-1.255h.526l-.89-1.74.2-1.417,1.052.4,2.186.4v.162l1.5.728.486.688v.809l-.89.648h.809l.486.648h1.255l.324.809.283.324h.2l.607-.4H377.3v.89l-1.578,1.214v1.052l.85-.364,1.7-.2,1.255-.729h1.943l1.821-1.862h1.174l-1.781,1.376.283.364,1.457-.931,1.336.2.445.85.688,1.093,1.3.324v1.457l.85.729,1.133.283.648,1.943-.486,2.995-.688,1.5v.769l1.052.931v7.2l.89,1.7.728.526L391.259,389l-.607-.04-.809-1.7-.971-.486h-.283L388.3,388.6l-3.926,1.578-.648.89-2.995.688-1.093.607v.931h-.4l-.809-1.093-.4-.2-.4.567v.648l1.619,1.538V397.5l1.862,1.7,4.735,5.262-1.9.971-.526.567-.364.931-2.388.85-.324,2.469.648,1.336v.729l-.445.364h-.445l-.648-.931-1.9-.486-.607.567h-3.157l-1.538.728H370.82l-1.133-.931h-1.255l-.971,1.174h-.607l-.971-1.214-1.336-.567h-1.3l-2.955-1.5h-5.464l-1.012-.486v-2.671l1.538-3.2,2.833-3.4v-.445l-2.712-1.174-1.983.4-.567-.567v-1.093l-1.133-1.133-1.3-1.821.364-.445v-.89l-.567-.971V390.1l.526-.324v-.243l-.526-.4.121-.526,1.133-1.012v-.769l-.324-.4-.567-1.619v-2.712l1.174-1.012.243-2.428.931-1.3,2.267-.971.486-.89,1.7-1.255v-.89l-.324-.324-.809-.567v-.931l1.5-.931.648-1.336.4-2.186h1.457l-1.214-.769v-.283l1.133-1.659h2.388l1.174.85-.04,1.7Z" transform="translate(-479.971 -182.8)" fill="#47bee2" stroke="#fff" stroke-miterlimit="10" stroke-width="0.953"/>
    <path id="Path_27422_4_" d="M330.993,389.954l-1.093-.648v-.567l2.145-.567,1.619-1.862,1.174-1.74,1.7-3.359,1.174.283.4,1.133-.971.648-.607,1.578,1.417,1.255v-1.255l1.417-1.174-.445-3.157,1.255-1.336L342,378.5l1.376.688.809-.4h1.376l1.012,1.457-.4,2.186-.648,1.336-1.5.931v.931l.809.567.324.324v.89l-1.7,1.255-.486.89-2.267.971-.931,1.3-.243,2.428L338.44,395.3v2.671l-1.052-.567-.283-1.457.324-.648V394.2l-1.5-.648-1.012-1.578-1.821-.243h-2.55l-.607-.85.324-.607,3.562-.445v-.2l-1.133-.486-.283.688h-.243l-.324-.486h-.364l-.243.567Z" transform="translate(-467.827 -196.015)" fill="#47bee2" stroke="#fff" stroke-miterlimit="10" stroke-width="0.953"/>
    <circle id="Ellipse_2881-3_2_" cx="11.292" cy="11.292" r="11.292" transform="translate(-130.685 164.029)" fill="#102441" opacity="0.339"/>
    <g id="Group_14063_2_" transform="translate(-127.143 154.764)">
      <path id="Icon_material-location-on-13-3_2_" d="M171.271,125.9h0a7.764,7.764,0,0,0-7.771,7.73h0a13.073,13.073,0,0,0,1.659,5.626A46.831,46.831,0,0,0,171.23,148a47.1,47.1,0,0,0,6.03-8.621A13.5,13.5,0,0,0,179,133.63,7.756,7.756,0,0,0,171.271,125.9Zm-.04,4.978a2.772,2.772,0,1,1-2.752,2.793h0a2.764,2.764,0,0,1,2.752-2.793Z" transform="translate(-163.5 -125.9)" fill="#102441"/>
    </g>
  </g>
</svg>
